<?xml version="1.0" encoding="utf-8" standalone="no"?>
<!DOCTYPE svg PUBLIC "-//W3C//DTD SVG 1.1//EN"
  "http://www.w3.org/Graphics/SVG/1.1/DTD/svg11.dtd">
<svg xmlns:xlink="http://www.w3.org/1999/xlink" width="1080pt" height="720pt" viewBox="0 0 1080 720" xmlns="http://www.w3.org/2000/svg" version="1.1">
 <metadata>
  <rdf:RDF xmlns:dc="http://purl.org/dc/elements/1.1/" xmlns:cc="http://creativecommons.org/ns#" xmlns:rdf="http://www.w3.org/1999/02/22-rdf-syntax-ns#">
   <cc:Work>
    <dc:type rdf:resource="http://purl.org/dc/dcmitype/StillImage"/>
    <dc:date>2025-05-18T15:44:33.524740</dc:date>
    <dc:format>image/svg+xml</dc:format>
    <dc:creator>
     <cc:Agent>
      <dc:title>Matplotlib v3.10.3, https://matplotlib.org/</dc:title>
     </cc:Agent>
    </dc:creator>
   </cc:Work>
  </rdf:RDF>
 </metadata>
 <defs>
  <style type="text/css">*{stroke-linejoin: round; stroke-linecap: butt}</style>
 </defs>
 <g id="figure_1">
  <g id="patch_1">
   <path d="M 0 720 
L 1080 720 
L 1080 0 
L 0 0 
z
" style="fill: #ffffff"/>
  </g>
  <g id="axes_1">
   <g id="patch_2">
    <path d="M 43.09 692.12 
L 1069.2 692.12 
L 1069.2 26.88 
L 43.09 26.88 
z
" style="fill: #ffffff"/>
   </g>
   <g id="matplotlib.axis_1">
    <g id="xtick_1">
     <g id="line2d_1">
      <defs>
       <path id="m96d067fe55" d="M 0 0 
L 0 3.5 
" style="stroke: #000000; stroke-width: 0.8"/>
      </defs>
      <g>
       <use xlink:href="#m96d067fe55" x="156.715813" y="692.12" style="stroke: #000000; stroke-width: 0.8"/>
      </g>
     </g>
     <g id="text_1">
      <!-- 2012 -->
      <g transform="translate(143.990813 706.718438) scale(0.1 -0.1)">
       <defs>
        <path id="DejaVuSans-32" d="M 1228 531 
L 3431 531 
L 3431 0 
L 469 0 
L 469 531 
Q 828 903 1448 1529 
Q 2069 2156 2228 2338 
Q 2531 2678 2651 2914 
Q 2772 3150 2772 3378 
Q 2772 3750 2511 3984 
Q 2250 4219 1831 4219 
Q 1534 4219 1204 4116 
Q 875 4013 500 3803 
L 500 4441 
Q 881 4594 1212 4672 
Q 1544 4750 1819 4750 
Q 2544 4750 2975 4387 
Q 3406 4025 3406 3419 
Q 3406 3131 3298 2873 
Q 3191 2616 2906 2266 
Q 2828 2175 2409 1742 
Q 1991 1309 1228 531 
z
" transform="scale(0.015625)"/>
        <path id="DejaVuSans-30" d="M 2034 4250 
Q 1547 4250 1301 3770 
Q 1056 3291 1056 2328 
Q 1056 1369 1301 889 
Q 1547 409 2034 409 
Q 2525 409 2770 889 
Q 3016 1369 3016 2328 
Q 3016 3291 2770 3770 
Q 2525 4250 2034 4250 
z
M 2034 4750 
Q 2819 4750 3233 4129 
Q 3647 3509 3647 2328 
Q 3647 1150 3233 529 
Q 2819 -91 2034 -91 
Q 1250 -91 836 529 
Q 422 1150 422 2328 
Q 422 3509 836 4129 
Q 1250 4750 2034 4750 
z
" transform="scale(0.015625)"/>
        <path id="DejaVuSans-31" d="M 794 531 
L 1825 531 
L 1825 4091 
L 703 3866 
L 703 4441 
L 1819 4666 
L 2450 4666 
L 2450 531 
L 3481 531 
L 3481 0 
L 794 0 
L 794 531 
z
" transform="scale(0.015625)"/>
       </defs>
       <use xlink:href="#DejaVuSans-32"/>
       <use xlink:href="#DejaVuSans-30" transform="translate(63.623047 0)"/>
       <use xlink:href="#DejaVuSans-31" transform="translate(127.246094 0)"/>
       <use xlink:href="#DejaVuSans-32" transform="translate(190.869141 0)"/>
      </g>
     </g>
    </g>
    <g id="xtick_2">
     <g id="line2d_2">
      <g>
       <use xlink:href="#m96d067fe55" x="290.86823" y="692.12" style="stroke: #000000; stroke-width: 0.8"/>
      </g>
     </g>
     <g id="text_2">
      <!-- 2014 -->
      <g transform="translate(278.14323 706.718438) scale(0.1 -0.1)">
       <defs>
        <path id="DejaVuSans-34" d="M 2419 4116 
L 825 1625 
L 2419 1625 
L 2419 4116 
z
M 2253 4666 
L 3047 4666 
L 3047 1625 
L 3713 1625 
L 3713 1100 
L 3047 1100 
L 3047 0 
L 2419 0 
L 2419 1100 
L 313 1100 
L 313 1709 
L 2253 4666 
z
" transform="scale(0.015625)"/>
       </defs>
       <use xlink:href="#DejaVuSans-32"/>
       <use xlink:href="#DejaVuSans-30" transform="translate(63.623047 0)"/>
       <use xlink:href="#DejaVuSans-31" transform="translate(127.246094 0)"/>
       <use xlink:href="#DejaVuSans-34" transform="translate(190.869141 0)"/>
      </g>
     </g>
    </g>
    <g id="xtick_3">
     <g id="line2d_3">
      <g>
       <use xlink:href="#m96d067fe55" x="424.837128" y="692.12" style="stroke: #000000; stroke-width: 0.8"/>
      </g>
     </g>
     <g id="text_3">
      <!-- 2016 -->
      <g transform="translate(412.112128 706.718438) scale(0.1 -0.1)">
       <defs>
        <path id="DejaVuSans-36" d="M 2113 2584 
Q 1688 2584 1439 2293 
Q 1191 2003 1191 1497 
Q 1191 994 1439 701 
Q 1688 409 2113 409 
Q 2538 409 2786 701 
Q 3034 994 3034 1497 
Q 3034 2003 2786 2293 
Q 2538 2584 2113 2584 
z
M 3366 4563 
L 3366 3988 
Q 3128 4100 2886 4159 
Q 2644 4219 2406 4219 
Q 1781 4219 1451 3797 
Q 1122 3375 1075 2522 
Q 1259 2794 1537 2939 
Q 1816 3084 2150 3084 
Q 2853 3084 3261 2657 
Q 3669 2231 3669 1497 
Q 3669 778 3244 343 
Q 2819 -91 2113 -91 
Q 1303 -91 875 529 
Q 447 1150 447 2328 
Q 447 3434 972 4092 
Q 1497 4750 2381 4750 
Q 2619 4750 2861 4703 
Q 3103 4656 3366 4563 
z
" transform="scale(0.015625)"/>
       </defs>
       <use xlink:href="#DejaVuSans-32"/>
       <use xlink:href="#DejaVuSans-30" transform="translate(63.623047 0)"/>
       <use xlink:href="#DejaVuSans-31" transform="translate(127.246094 0)"/>
       <use xlink:href="#DejaVuSans-36" transform="translate(190.869141 0)"/>
      </g>
     </g>
    </g>
    <g id="xtick_4">
     <g id="line2d_4">
      <g>
       <use xlink:href="#m96d067fe55" x="558.989545" y="692.12" style="stroke: #000000; stroke-width: 0.8"/>
      </g>
     </g>
     <g id="text_4">
      <!-- 2018 -->
      <g transform="translate(546.264545 706.718438) scale(0.1 -0.1)">
       <defs>
        <path id="DejaVuSans-38" d="M 2034 2216 
Q 1584 2216 1326 1975 
Q 1069 1734 1069 1313 
Q 1069 891 1326 650 
Q 1584 409 2034 409 
Q 2484 409 2743 651 
Q 3003 894 3003 1313 
Q 3003 1734 2745 1975 
Q 2488 2216 2034 2216 
z
M 1403 2484 
Q 997 2584 770 2862 
Q 544 3141 544 3541 
Q 544 4100 942 4425 
Q 1341 4750 2034 4750 
Q 2731 4750 3128 4425 
Q 3525 4100 3525 3541 
Q 3525 3141 3298 2862 
Q 3072 2584 2669 2484 
Q 3125 2378 3379 2068 
Q 3634 1759 3634 1313 
Q 3634 634 3220 271 
Q 2806 -91 2034 -91 
Q 1263 -91 848 271 
Q 434 634 434 1313 
Q 434 1759 690 2068 
Q 947 2378 1403 2484 
z
M 1172 3481 
Q 1172 3119 1398 2916 
Q 1625 2713 2034 2713 
Q 2441 2713 2670 2916 
Q 2900 3119 2900 3481 
Q 2900 3844 2670 4047 
Q 2441 4250 2034 4250 
Q 1625 4250 1398 4047 
Q 1172 3844 1172 3481 
z
" transform="scale(0.015625)"/>
       </defs>
       <use xlink:href="#DejaVuSans-32"/>
       <use xlink:href="#DejaVuSans-30" transform="translate(63.623047 0)"/>
       <use xlink:href="#DejaVuSans-31" transform="translate(127.246094 0)"/>
       <use xlink:href="#DejaVuSans-38" transform="translate(190.869141 0)"/>
      </g>
     </g>
    </g>
    <g id="xtick_5">
     <g id="line2d_5">
      <g>
       <use xlink:href="#m96d067fe55" x="692.958443" y="692.12" style="stroke: #000000; stroke-width: 0.8"/>
      </g>
     </g>
     <g id="text_5">
      <!-- 2020 -->
      <g transform="translate(680.233443 706.718438) scale(0.1 -0.1)">
       <use xlink:href="#DejaVuSans-32"/>
       <use xlink:href="#DejaVuSans-30" transform="translate(63.623047 0)"/>
       <use xlink:href="#DejaVuSans-32" transform="translate(127.246094 0)"/>
       <use xlink:href="#DejaVuSans-30" transform="translate(190.869141 0)"/>
      </g>
     </g>
    </g>
    <g id="xtick_6">
     <g id="line2d_6">
      <g>
       <use xlink:href="#m96d067fe55" x="827.11086" y="692.12" style="stroke: #000000; stroke-width: 0.8"/>
      </g>
     </g>
     <g id="text_6">
      <!-- 2022 -->
      <g transform="translate(814.38586 706.718438) scale(0.1 -0.1)">
       <use xlink:href="#DejaVuSans-32"/>
       <use xlink:href="#DejaVuSans-30" transform="translate(63.623047 0)"/>
       <use xlink:href="#DejaVuSans-32" transform="translate(127.246094 0)"/>
       <use xlink:href="#DejaVuSans-32" transform="translate(190.869141 0)"/>
      </g>
     </g>
    </g>
    <g id="xtick_7">
     <g id="line2d_7">
      <g>
       <use xlink:href="#m96d067fe55" x="961.079758" y="692.12" style="stroke: #000000; stroke-width: 0.8"/>
      </g>
     </g>
     <g id="text_7">
      <!-- 2024 -->
      <g transform="translate(948.354758 706.718438) scale(0.1 -0.1)">
       <use xlink:href="#DejaVuSans-32"/>
       <use xlink:href="#DejaVuSans-30" transform="translate(63.623047 0)"/>
       <use xlink:href="#DejaVuSans-32" transform="translate(127.246094 0)"/>
       <use xlink:href="#DejaVuSans-34" transform="translate(190.869141 0)"/>
      </g>
     </g>
    </g>
   </g>
   <g id="matplotlib.axis_2">
    <g id="ytick_1">
     <g id="line2d_8">
      <path d="M 43.09 596.522547 
L 1069.2 596.522547 
" clip-path="url(#p71837219e5)" style="fill: none; stroke: #b0b0b0; stroke-width: 0.8; stroke-linecap: square"/>
     </g>
     <g id="line2d_9">
      <defs>
       <path id="m79875c4052" d="M 0 0 
L -3.5 0 
" style="stroke: #000000; stroke-width: 0.8"/>
      </defs>
      <g>
       <use xlink:href="#m79875c4052" x="43.09" y="596.522547" style="stroke: #000000; stroke-width: 0.8"/>
      </g>
     </g>
     <g id="text_8">
      <!-- 0 -->
      <g transform="translate(29.7275 600.321766) scale(0.1 -0.1)">
       <use xlink:href="#DejaVuSans-30"/>
      </g>
     </g>
    </g>
    <g id="ytick_2">
     <g id="line2d_10">
      <path d="M 43.09 469.129618 
L 1069.2 469.129618 
" clip-path="url(#p71837219e5)" style="fill: none; stroke: #b0b0b0; stroke-width: 0.8; stroke-linecap: square"/>
     </g>
     <g id="line2d_11">
      <g>
       <use xlink:href="#m79875c4052" x="43.09" y="469.129618" style="stroke: #000000; stroke-width: 0.8"/>
      </g>
     </g>
     <g id="text_9">
      <!-- 2000 -->
      <g transform="translate(10.64 472.928837) scale(0.1 -0.1)">
       <use xlink:href="#DejaVuSans-32"/>
       <use xlink:href="#DejaVuSans-30" transform="translate(63.623047 0)"/>
       <use xlink:href="#DejaVuSans-30" transform="translate(127.246094 0)"/>
       <use xlink:href="#DejaVuSans-30" transform="translate(190.869141 0)"/>
      </g>
     </g>
    </g>
    <g id="ytick_3">
     <g id="line2d_12">
      <path d="M 43.09 341.736689 
L 1069.2 341.736689 
" clip-path="url(#p71837219e5)" style="fill: none; stroke: #b0b0b0; stroke-width: 0.8; stroke-linecap: square"/>
     </g>
     <g id="line2d_13">
      <g>
       <use xlink:href="#m79875c4052" x="43.09" y="341.736689" style="stroke: #000000; stroke-width: 0.8"/>
      </g>
     </g>
     <g id="text_10">
      <!-- 4000 -->
      <g transform="translate(10.64 345.535908) scale(0.1 -0.1)">
       <use xlink:href="#DejaVuSans-34"/>
       <use xlink:href="#DejaVuSans-30" transform="translate(63.623047 0)"/>
       <use xlink:href="#DejaVuSans-30" transform="translate(127.246094 0)"/>
       <use xlink:href="#DejaVuSans-30" transform="translate(190.869141 0)"/>
      </g>
     </g>
    </g>
    <g id="ytick_4">
     <g id="line2d_14">
      <path d="M 43.09 214.34376 
L 1069.2 214.34376 
" clip-path="url(#p71837219e5)" style="fill: none; stroke: #b0b0b0; stroke-width: 0.8; stroke-linecap: square"/>
     </g>
     <g id="line2d_15">
      <g>
       <use xlink:href="#m79875c4052" x="43.09" y="214.34376" style="stroke: #000000; stroke-width: 0.8"/>
      </g>
     </g>
     <g id="text_11">
      <!-- 6000 -->
      <g transform="translate(10.64 218.142979) scale(0.1 -0.1)">
       <use xlink:href="#DejaVuSans-36"/>
       <use xlink:href="#DejaVuSans-30" transform="translate(63.623047 0)"/>
       <use xlink:href="#DejaVuSans-30" transform="translate(127.246094 0)"/>
       <use xlink:href="#DejaVuSans-30" transform="translate(190.869141 0)"/>
      </g>
     </g>
    </g>
    <g id="ytick_5">
     <g id="line2d_16">
      <path d="M 43.09 86.950831 
L 1069.2 86.950831 
" clip-path="url(#p71837219e5)" style="fill: none; stroke: #b0b0b0; stroke-width: 0.8; stroke-linecap: square"/>
     </g>
     <g id="line2d_17">
      <g>
       <use xlink:href="#m79875c4052" x="43.09" y="86.950831" style="stroke: #000000; stroke-width: 0.8"/>
      </g>
     </g>
     <g id="text_12">
      <!-- 8000 -->
      <g transform="translate(10.64 90.75005) scale(0.1 -0.1)">
       <use xlink:href="#DejaVuSans-38"/>
       <use xlink:href="#DejaVuSans-30" transform="translate(63.623047 0)"/>
       <use xlink:href="#DejaVuSans-30" transform="translate(127.246094 0)"/>
       <use xlink:href="#DejaVuSans-30" transform="translate(190.869141 0)"/>
      </g>
     </g>
    </g>
   </g>
   <g id="line2d_18">
    <path d="M 89.731364 481.270197 
L 95.420454 486.216486 
L 100.558987 476.793123 
L 106.248077 464.421872 
L 111.753648 465.770171 
L 117.442738 452.775435 
L 122.94831 455.17235 
L 128.6374 451.448819 
L 134.32649 446.704806 
L 139.832061 434.723602 
L 145.521151 438.331961 
L 151.026722 442.203813 
L 156.715813 468.237167 
L 162.404903 472.031018 
L 167.726955 469.156884 
L 173.416045 455.410659 
L 178.921616 445.980552 
L 184.610707 442.514902 
L 190.116278 443.387197 
L 195.805368 444.913277 
L 201.494458 437.687719 
L 207.000029 427.358868 
L 212.689119 429.795919 
L 218.194691 444.8654 
L 223.883781 461.171277 
L 229.572871 470.432509 
L 234.711404 470.406156 
L 240.400494 449.652034 
L 245.906065 446.679229 
L 251.595156 441.42296 
L 257.100727 438.1418 
L 262.789817 436.816151 
L 268.478907 429.829633 
L 273.984478 419.150614 
L 279.673568 413.210577 
L 285.17914 425.387385 
L 290.86823 446.229033 
L 296.55732 458.722985 
L 301.695853 451.845493 
L 307.384943 446.253072 
L 312.890514 430.369278 
L 318.579605 424.097522 
L 324.085176 423.162532 
L 329.774266 422.615702 
L 335.463356 415.40698 
L 340.968927 400.191421 
L 346.658018 404.336597 
L 352.163589 414.435291 
L 357.852679 441.825069 
L 363.541769 445.062606 
L 368.680302 441.344726 
L 374.369392 422.660501 
L 379.874964 407.817689 
L 385.564054 400.377943 
L 391.069625 403.764956 
L 396.758715 406.13446 
L 402.447805 401.943903 
L 407.953376 391.947261 
L 413.642467 389.008029 
L 419.148038 405.787623 
L 424.837128 427.823986 
L 430.526218 433.066521 
L 435.84827 428.886425 
L 441.53736 413.180876 
L 447.042932 406.306219 
L 452.732022 397.440874 
L 458.237593 396.719235 
L 463.926683 390.870538 
L 469.615773 386.116564 
L 475.121344 378.693513 
L 480.810435 378.785584 
L 486.316006 392.064465 
L 492.005096 407.122367 
L 497.694186 414.009629 
L 502.832719 405.136854 
L 508.52181 394.607641 
L 514.027381 377.989985 
L 519.716471 370.960177 
L 525.222042 368.216424 
L 530.911132 364.266687 
L 536.600222 357.296073 
L 542.105794 347.990802 
L 547.794884 353.403259 
L 553.300455 364.073682 
L 558.989545 387.1986 
L 564.678635 393.774217 
L 569.817168 387.524676 
L 575.506259 367.063414 
L 581.01183 352.501396 
L 586.70092 350.796084 
L 592.206491 347.636909 
L 597.895581 348.170004 
L 603.584671 335.059498 
L 609.090243 322.8843 
L 614.779333 332.558375 
L 620.284904 342.916862 
L 625.973994 376.051679 
L 631.663084 384.692586 
L 636.801617 378.445342 
L 642.490708 356.158142 
L 647.996279 339.771466 
L 653.685369 324.540536 
L 659.19094 316.873492 
L 670.569121 304.002131 
L 676.074692 292.629288 
L 681.763782 294.606907 
L 687.269353 312.659601 
L 692.958443 338.253071 
L 698.647533 357.210331 
L 703.969586 368.357551 
L 709.658676 380.728001 
L 715.164247 364.892776 
L 720.853337 341.671975 
L 726.358908 324.849793 
L 732.047998 312.229065 
L 737.737089 295.418822 
L 743.24266 290.960284 
L 748.93175 299.615677 
L 754.437321 312.729353 
L 760.126411 348.35663 
L 765.815501 352.530668 
L 770.954035 343.332069 
L 776.643125 264.79848 
L 782.148696 275.85708 
L 787.837786 268.775455 
L 793.343357 263.819249 
L 799.032447 245.636088 
L 804.721538 235.350355 
L 810.227109 221.872526 
L 815.916199 221.825749 
L 821.42177 248.203183 
L 827.11086 278.655288 
L 832.799951 295.796505 
L 837.938484 288.093076 
L 843.627574 254.020247 
L 849.133145 208.403704 
L 854.822235 195.253783 
L 860.327806 186.591061 
L 866.016897 175.940563 
L 871.705987 165.898158 
L 877.211558 148.164884 
L 882.900648 149.904037 
L 888.406219 170.621098 
L 894.095309 221.597523 
L 899.7844 242.779492 
L 904.922933 233.312922 
L 910.612023 198.342951 
L 916.117594 174.639844 
L 921.806684 155.918753 
L 927.312255 152.09853 
L 933.001346 141.419264 
L 938.690436 128.324005 
L 944.196007 109.952263 
L 949.885097 113.089414 
L 955.390668 134.84965 
L 961.079758 184.383487 
L 966.768849 195.691568 
L 972.090901 186.737944 
L 977.779991 142.716605 
L 983.285562 116.235254 
L 988.974652 95.538817 
L 994.480223 74.559343 
L 1000.169314 66.472987 
L 1005.858404 65.315484 
L 1011.363975 57.118182 
L 1017.053065 60.192094 
L 1022.558636 60.127608 
L 1022.558636 60.127608 
" clip-path="url(#p71837219e5)" style="fill: none; stroke: #0000ff; stroke-width: 1.5; stroke-linecap: square"/>
   </g>
   <g id="line2d_19">
    <path d="M 89.731364 596.522146 
L 95.420454 557.167145 
L 100.558987 517.812303 
L 106.248077 502.36628 
L 111.753648 486.094902 
L 117.442738 478.234326 
L 122.94831 463.396784 
L 128.6374 451.988899 
L 134.32649 435.080355 
L 139.832061 426.344619 
L 145.521151 420.286832 
L 151.026722 428.987653 
L 156.715813 440.834639 
L 162.404903 455.217754 
L 167.726955 460.75745 
L 173.416045 460.218197 
L 178.921616 453.585632 
L 184.610707 447.965835 
L 190.116278 444.516071 
L 195.805368 444.978775 
L 201.494458 446.750633 
L 207.000029 448.610162 
L 212.689119 449.030606 
L 218.194691 448.211375 
L 229.572871 446.234729 
L 234.711404 446.13554 
L 240.400494 446.251111 
L 245.906065 446.062807 
L 251.595156 445.146895 
L 257.100727 443.545491 
L 262.789817 441.616946 
L 273.984478 437.220817 
L 279.673568 435.492533 
L 285.17914 434.309289 
L 296.55732 433.374841 
L 301.695853 433.117666 
L 307.384943 431.456383 
L 312.890514 430.138165 
L 318.579605 427.800687 
L 324.085176 426.659733 
L 329.774266 425.074599 
L 335.463356 424.900699 
L 340.968927 424.5779 
L 346.658018 424.742751 
L 352.163589 424.150276 
L 357.852679 422.502536 
L 363.541769 419.919913 
L 368.680302 416.22616 
L 374.369392 413.422506 
L 379.874964 410.952376 
L 385.564054 410.681353 
L 391.069625 410.661231 
L 396.758715 411.651651 
L 402.447805 411.3837 
L 407.953376 410.750663 
L 419.148038 407.574388 
L 424.837128 406.415121 
L 430.526218 405.999643 
L 441.53736 406.916372 
L 447.042932 406.67736 
L 452.732022 405.162651 
L 458.237593 402.582878 
L 463.926683 400.135498 
L 469.615773 398.22273 
L 475.121344 397.125553 
L 480.810435 395.753083 
L 486.316006 393.944478 
L 492.005096 391.446794 
L 497.694186 388.594881 
L 508.52181 382.916227 
L 514.027381 380.639712 
L 519.716471 377.873462 
L 525.222042 375.800134 
L 530.911132 373.109627 
L 536.600222 371.331186 
L 542.105794 369.356754 
L 558.989545 366.201378 
L 564.678635 364.396617 
L 569.817168 361.936785 
L 575.506259 359.698119 
L 581.01183 357.848343 
L 586.70092 356.714099 
L 592.206491 355.488436 
L 597.895581 353.805543 
L 603.584671 351.733294 
L 609.090243 349.944927 
L 614.779333 349.116764 
L 625.973994 349.927595 
L 631.663084 349.882933 
L 636.801617 347.922364 
L 642.490708 344.407296 
L 647.996279 339.073673 
L 653.685369 334.22421 
L 659.19094 329.798497 
L 670.569121 324.979272 
L 676.074692 323.369506 
L 681.763782 321.232242 
L 687.269353 320.153608 
L 692.958443 321.679375 
L 698.647533 326.559768 
L 703.969586 333.76558 
L 709.658676 339.111418 
L 715.164247 341.246792 
L 720.853337 338.019582 
L 726.358908 333.342583 
L 732.047998 328.662541 
L 737.737089 328.11322 
L 743.24266 329.03699 
L 748.93175 331.440083 
L 754.437321 330.48023 
L 760.126411 323.394577 
L 765.815501 309.181259 
L 770.954035 291.209166 
L 776.643125 278.494357 
L 782.148696 270.656698 
L 787.837786 271.471054 
L 793.343357 271.057166 
L 799.032447 270.781745 
L 804.721538 263.24965 
L 810.227109 256.365721 
L 815.916199 247.373405 
L 821.42177 243.47331 
L 827.11086 241.361585 
L 832.799951 242.222607 
L 837.938484 240.361269 
L 843.627574 233.497033 
L 849.133145 223.885985 
L 854.822235 212.151326 
L 860.327806 204.326822 
L 866.016897 197.646784 
L 871.705987 194.570023 
L 877.211558 190.268499 
L 882.900648 187.449467 
L 888.406219 183.471734 
L 894.095309 180.566756 
L 899.7844 177.420237 
L 904.922933 175.59471 
L 916.117594 172.435025 
L 921.806684 170.380084 
L 927.312255 167.099226 
L 933.001346 163.390471 
L 938.690436 159.156204 
L 949.885097 151.704416 
L 955.390668 147.917022 
L 961.079758 142.745797 
L 966.768849 136.936608 
L 972.090901 129.782474 
L 977.779991 122.862209 
L 983.285562 115.249267 
L 988.974652 108.462644 
L 994.480223 102.788688 
L 1000.169314 99.339675 
L 1005.858404 96.27872 
L 1011.363975 92.495546 
L 1017.053065 87.498399 
L 1022.558636 83.004079 
L 1022.558636 83.004079 
" clip-path="url(#p71837219e5)" style="fill: none; stroke: #008000; stroke-width: 1.5; stroke-linecap: square"/>
   </g>
   <g id="line2d_20">
    <path d="M 89.731364 481.271001 
L 95.420454 596.517481 
L 229.572871 596.522495 
L 1022.558636 596.522526 
L 1022.558636 596.522526 
" clip-path="url(#p71837219e5)" style="fill: none; stroke: #ff0000; stroke-width: 1.5; stroke-linecap: square"/>
   </g>
   <g id="line2d_21">
    <path d="M 89.731364 596.522146 
L 95.420454 525.576954 
L 100.558987 555.503992 
L 106.248077 558.579624 
L 111.753648 576.197767 
L 117.442738 571.063778 
L 122.94831 588.297419 
L 128.6374 595.982367 
L 134.32649 608.146714 
L 139.832061 604.902053 
L 145.521151 614.567947 
L 151.026722 609.739246 
L 156.715813 623.92488 
L 162.404903 613.335568 
L 167.726955 604.921411 
L 173.416045 591.714803 
L 178.921616 588.9174 
L 184.610707 591.07185 
L 190.116278 595.393865 
L 195.805368 596.457209 
L 201.494458 587.459623 
L 207.000029 575.271187 
L 212.689119 577.287746 
L 218.194691 593.176524 
L 223.883781 610.497952 
L 229.572871 620.720379 
L 234.711404 620.793207 
L 240.400494 599.923517 
L 245.906065 597.138945 
L 251.595156 592.798611 
L 257.100727 591.118812 
L 262.789817 591.721732 
L 268.478907 587.00396 
L 273.984478 578.452336 
L 279.673568 574.240646 
L 285.17914 587.600684 
L 290.86823 608.954378 
L 296.55732 621.87068 
L 301.695853 615.250402 
L 307.384943 611.31911 
L 312.890514 596.753648 
L 318.579605 592.819268 
L 324.085176 593.025393 
L 329.774266 594.063647 
L 335.463356 587.028944 
L 340.968927 572.136117 
L 346.658018 576.116423 
L 352.163589 586.807517 
L 357.852679 615.844964 
L 363.541769 621.665173 
L 368.680302 621.641058 
L 374.369392 605.76065 
L 379.874964 593.387949 
L 385.564054 586.219276 
L 391.069625 589.626261 
L 396.758715 591.005322 
L 402.447805 587.082629 
L 407.953376 577.719097 
L 413.642467 576.401223 
L 419.148038 594.735838 
L 424.837128 617.931469 
L 430.526218 623.589488 
L 435.84827 618.989502 
L 441.53736 602.787016 
L 447.042932 596.151315 
L 452.732022 588.80075 
L 458.237593 590.658898 
L 463.926683 587.257653 
L 469.615773 584.416393 
L 475.121344 578.090503 
L 480.810435 579.555008 
L 486.316006 594.642515 
L 492.005096 612.198157 
L 497.694186 621.937318 
L 502.832719 615.782876 
L 508.52181 608.213911 
L 514.027381 593.872824 
L 519.716471 589.609204 
L 525.222042 588.938888 
L 530.911132 587.679613 
L 536.600222 582.487501 
L 542.105794 575.156571 
L 547.794884 581.599993 
L 553.300455 593.307927 
L 558.989545 617.519742 
L 564.678635 625.900154 
L 569.817168 622.110546 
L 575.506259 603.887949 
L 581.01183 591.175657 
L 586.70092 590.604459 
L 592.206491 588.670897 
L 597.895581 590.886899 
L 603.584671 579.848771 
L 609.090243 569.462022 
L 620.284904 589.972482 
L 625.973994 622.646462 
L 631.663084 631.332026 
L 636.801617 627.045385 
L 642.490708 608.273497 
L 647.996279 597.220534 
L 653.685369 586.839167 
L 659.19094 583.597645 
L 670.569121 575.545107 
L 676.074692 565.782062 
L 681.763782 569.89721 
L 687.269353 589.028828 
L 692.958443 613.096809 
L 698.647533 627.173378 
L 703.969586 631.114499 
L 709.658676 638.138495 
L 715.164247 620.168064 
L 720.853337 600.174487 
L 726.358908 588.029984 
L 732.047998 580.089403 
L 737.737089 563.828726 
L 743.24266 558.445996 
L 748.93175 564.698003 
L 754.437321 578.771183 
L 760.126411 621.484089 
L 765.815501 639.871884 
L 770.954035 648.645686 
L 776.643125 582.827386 
L 782.148696 601.723164 
L 787.837786 593.827182 
L 793.343357 589.284157 
L 799.032447 571.376691 
L 804.721538 568.622838 
L 810.227109 562.029493 
L 815.916199 570.974971 
L 821.42177 601.252743 
L 827.11086 633.816327 
L 832.799951 650.096373 
L 837.938484 644.254127 
L 843.627574 617.045515 
L 849.133145 581.040318 
L 854.822235 579.625055 
L 860.327806 578.78707 
L 866.016897 574.816338 
L 871.705987 567.850781 
L 877.211558 554.41879 
L 882.900648 558.977134 
L 888.406219 583.67183 
L 894.095309 637.553383 
L 899.7844 661.881818 
L 904.922933 654.240849 
L 910.612023 620.840768 
L 916.117594 598.72732 
L 921.806684 582.061102 
L 927.312255 581.521738 
L 933.001346 574.551323 
L 938.690436 565.69039 
L 944.196007 550.953061 
L 949.885097 557.907566 
L 955.390668 583.455176 
L 961.079758 638.160191 
L 966.768849 655.277501 
L 972.090901 653.477959 
L 977.779991 616.376959 
L 983.285562 597.508539 
L 988.974652 583.598812 
L 994.480223 568.293258 
L 1000.169314 563.655897 
L 1005.858404 565.559261 
L 1011.363975 561.145136 
L 1017.053065 569.21621 
L 1022.558636 573.646098 
L 1022.558636 573.646098 
" clip-path="url(#p71837219e5)" style="fill: none; stroke: #ffa500; stroke-width: 1.5; stroke-linecap: square"/>
   </g>
   <g id="patch_3">
    <path d="M 43.09 692.12 
L 43.09 26.88 
" style="fill: none; stroke: #000000; stroke-width: 0.8; stroke-linejoin: miter; stroke-linecap: square"/>
   </g>
   <g id="patch_4">
    <path d="M 1069.2 692.12 
L 1069.2 26.88 
" style="fill: none; stroke: #000000; stroke-width: 0.8; stroke-linejoin: miter; stroke-linecap: square"/>
   </g>
   <g id="patch_5">
    <path d="M 43.09 692.12 
L 1069.2 692.12 
" style="fill: none; stroke: #000000; stroke-width: 0.8; stroke-linejoin: miter; stroke-linecap: square"/>
   </g>
   <g id="patch_6">
    <path d="M 43.09 26.88 
L 1069.2 26.88 
" style="fill: none; stroke: #000000; stroke-width: 0.8; stroke-linejoin: miter; stroke-linecap: square"/>
   </g>
   <g id="text_13">
    <!-- GDP Components -->
    <g transform="translate(503.390938 20.88) scale(0.12 -0.12)">
     <defs>
      <path id="DejaVuSans-47" d="M 3809 666 
L 3809 1919 
L 2778 1919 
L 2778 2438 
L 4434 2438 
L 4434 434 
Q 4069 175 3628 42 
Q 3188 -91 2688 -91 
Q 1594 -91 976 548 
Q 359 1188 359 2328 
Q 359 3472 976 4111 
Q 1594 4750 2688 4750 
Q 3144 4750 3555 4637 
Q 3966 4525 4313 4306 
L 4313 3634 
Q 3963 3931 3569 4081 
Q 3175 4231 2741 4231 
Q 1884 4231 1454 3753 
Q 1025 3275 1025 2328 
Q 1025 1384 1454 906 
Q 1884 428 2741 428 
Q 3075 428 3337 486 
Q 3600 544 3809 666 
z
" transform="scale(0.015625)"/>
      <path id="DejaVuSans-44" d="M 1259 4147 
L 1259 519 
L 2022 519 
Q 2988 519 3436 956 
Q 3884 1394 3884 2338 
Q 3884 3275 3436 3711 
Q 2988 4147 2022 4147 
L 1259 4147 
z
M 628 4666 
L 1925 4666 
Q 3281 4666 3915 4102 
Q 4550 3538 4550 2338 
Q 4550 1131 3912 565 
Q 3275 0 1925 0 
L 628 0 
L 628 4666 
z
" transform="scale(0.015625)"/>
      <path id="DejaVuSans-50" d="M 1259 4147 
L 1259 2394 
L 2053 2394 
Q 2494 2394 2734 2622 
Q 2975 2850 2975 3272 
Q 2975 3691 2734 3919 
Q 2494 4147 2053 4147 
L 1259 4147 
z
M 628 4666 
L 2053 4666 
Q 2838 4666 3239 4311 
Q 3641 3956 3641 3272 
Q 3641 2581 3239 2228 
Q 2838 1875 2053 1875 
L 1259 1875 
L 1259 0 
L 628 0 
L 628 4666 
z
" transform="scale(0.015625)"/>
      <path id="DejaVuSans-20" transform="scale(0.015625)"/>
      <path id="DejaVuSans-43" d="M 4122 4306 
L 4122 3641 
Q 3803 3938 3442 4084 
Q 3081 4231 2675 4231 
Q 1875 4231 1450 3742 
Q 1025 3253 1025 2328 
Q 1025 1406 1450 917 
Q 1875 428 2675 428 
Q 3081 428 3442 575 
Q 3803 722 4122 1019 
L 4122 359 
Q 3791 134 3420 21 
Q 3050 -91 2638 -91 
Q 1578 -91 968 557 
Q 359 1206 359 2328 
Q 359 3453 968 4101 
Q 1578 4750 2638 4750 
Q 3056 4750 3426 4639 
Q 3797 4528 4122 4306 
z
" transform="scale(0.015625)"/>
      <path id="DejaVuSans-6f" d="M 1959 3097 
Q 1497 3097 1228 2736 
Q 959 2375 959 1747 
Q 959 1119 1226 758 
Q 1494 397 1959 397 
Q 2419 397 2687 759 
Q 2956 1122 2956 1747 
Q 2956 2369 2687 2733 
Q 2419 3097 1959 3097 
z
M 1959 3584 
Q 2709 3584 3137 3096 
Q 3566 2609 3566 1747 
Q 3566 888 3137 398 
Q 2709 -91 1959 -91 
Q 1206 -91 779 398 
Q 353 888 353 1747 
Q 353 2609 779 3096 
Q 1206 3584 1959 3584 
z
" transform="scale(0.015625)"/>
      <path id="DejaVuSans-6d" d="M 3328 2828 
Q 3544 3216 3844 3400 
Q 4144 3584 4550 3584 
Q 5097 3584 5394 3201 
Q 5691 2819 5691 2113 
L 5691 0 
L 5113 0 
L 5113 2094 
Q 5113 2597 4934 2840 
Q 4756 3084 4391 3084 
Q 3944 3084 3684 2787 
Q 3425 2491 3425 1978 
L 3425 0 
L 2847 0 
L 2847 2094 
Q 2847 2600 2669 2842 
Q 2491 3084 2119 3084 
Q 1678 3084 1418 2786 
Q 1159 2488 1159 1978 
L 1159 0 
L 581 0 
L 581 3500 
L 1159 3500 
L 1159 2956 
Q 1356 3278 1631 3431 
Q 1906 3584 2284 3584 
Q 2666 3584 2933 3390 
Q 3200 3197 3328 2828 
z
" transform="scale(0.015625)"/>
      <path id="DejaVuSans-70" d="M 1159 525 
L 1159 -1331 
L 581 -1331 
L 581 3500 
L 1159 3500 
L 1159 2969 
Q 1341 3281 1617 3432 
Q 1894 3584 2278 3584 
Q 2916 3584 3314 3078 
Q 3713 2572 3713 1747 
Q 3713 922 3314 415 
Q 2916 -91 2278 -91 
Q 1894 -91 1617 61 
Q 1341 213 1159 525 
z
M 3116 1747 
Q 3116 2381 2855 2742 
Q 2594 3103 2138 3103 
Q 1681 3103 1420 2742 
Q 1159 2381 1159 1747 
Q 1159 1113 1420 752 
Q 1681 391 2138 391 
Q 2594 391 2855 752 
Q 3116 1113 3116 1747 
z
" transform="scale(0.015625)"/>
      <path id="DejaVuSans-6e" d="M 3513 2113 
L 3513 0 
L 2938 0 
L 2938 2094 
Q 2938 2591 2744 2837 
Q 2550 3084 2163 3084 
Q 1697 3084 1428 2787 
Q 1159 2491 1159 1978 
L 1159 0 
L 581 0 
L 581 3500 
L 1159 3500 
L 1159 2956 
Q 1366 3272 1645 3428 
Q 1925 3584 2291 3584 
Q 2894 3584 3203 3211 
Q 3513 2838 3513 2113 
z
" transform="scale(0.015625)"/>
      <path id="DejaVuSans-65" d="M 3597 1894 
L 3597 1613 
L 953 1613 
Q 991 1019 1311 708 
Q 1631 397 2203 397 
Q 2534 397 2845 478 
Q 3156 559 3463 722 
L 3463 178 
Q 3153 47 2828 -22 
Q 2503 -91 2169 -91 
Q 1331 -91 842 396 
Q 353 884 353 1716 
Q 353 2575 817 3079 
Q 1281 3584 2069 3584 
Q 2775 3584 3186 3129 
Q 3597 2675 3597 1894 
z
M 3022 2063 
Q 3016 2534 2758 2815 
Q 2500 3097 2075 3097 
Q 1594 3097 1305 2825 
Q 1016 2553 972 2059 
L 3022 2063 
z
" transform="scale(0.015625)"/>
      <path id="DejaVuSans-74" d="M 1172 4494 
L 1172 3500 
L 2356 3500 
L 2356 3053 
L 1172 3053 
L 1172 1153 
Q 1172 725 1289 603 
Q 1406 481 1766 481 
L 2356 481 
L 2356 0 
L 1766 0 
Q 1100 0 847 248 
Q 594 497 594 1153 
L 594 3053 
L 172 3053 
L 172 3500 
L 594 3500 
L 594 4494 
L 1172 4494 
z
" transform="scale(0.015625)"/>
      <path id="DejaVuSans-73" d="M 2834 3397 
L 2834 2853 
Q 2591 2978 2328 3040 
Q 2066 3103 1784 3103 
Q 1356 3103 1142 2972 
Q 928 2841 928 2578 
Q 928 2378 1081 2264 
Q 1234 2150 1697 2047 
L 1894 2003 
Q 2506 1872 2764 1633 
Q 3022 1394 3022 966 
Q 3022 478 2636 193 
Q 2250 -91 1575 -91 
Q 1294 -91 989 -36 
Q 684 19 347 128 
L 347 722 
Q 666 556 975 473 
Q 1284 391 1588 391 
Q 1994 391 2212 530 
Q 2431 669 2431 922 
Q 2431 1156 2273 1281 
Q 2116 1406 1581 1522 
L 1381 1569 
Q 847 1681 609 1914 
Q 372 2147 372 2553 
Q 372 3047 722 3315 
Q 1072 3584 1716 3584 
Q 2034 3584 2315 3537 
Q 2597 3491 2834 3397 
z
" transform="scale(0.015625)"/>
     </defs>
     <use xlink:href="#DejaVuSans-47"/>
     <use xlink:href="#DejaVuSans-44" transform="translate(77.490234 0)"/>
     <use xlink:href="#DejaVuSans-50" transform="translate(154.492188 0)"/>
     <use xlink:href="#DejaVuSans-20" transform="translate(214.794922 0)"/>
     <use xlink:href="#DejaVuSans-43" transform="translate(246.582031 0)"/>
     <use xlink:href="#DejaVuSans-6f" transform="translate(316.40625 0)"/>
     <use xlink:href="#DejaVuSans-6d" transform="translate(377.587891 0)"/>
     <use xlink:href="#DejaVuSans-70" transform="translate(475 0)"/>
     <use xlink:href="#DejaVuSans-6f" transform="translate(538.476562 0)"/>
     <use xlink:href="#DejaVuSans-6e" transform="translate(599.658203 0)"/>
     <use xlink:href="#DejaVuSans-65" transform="translate(663.037109 0)"/>
     <use xlink:href="#DejaVuSans-6e" transform="translate(724.560547 0)"/>
     <use xlink:href="#DejaVuSans-74" transform="translate(787.939453 0)"/>
     <use xlink:href="#DejaVuSans-73" transform="translate(827.148438 0)"/>
    </g>
   </g>
   <g id="legend_1">
    <g id="patch_7">
     <path d="M 50.09 93.5925 
L 151.947813 93.5925 
Q 153.947813 93.5925 153.947813 91.5925 
L 153.947813 33.88 
Q 153.947813 31.88 151.947813 31.88 
L 50.09 31.88 
Q 48.09 31.88 48.09 33.88 
L 48.09 91.5925 
Q 48.09 93.5925 50.09 93.5925 
z
" style="fill: #ffffff; opacity: 0.8; stroke: #cccccc; stroke-linejoin: miter"/>
    </g>
    <g id="line2d_22">
     <path d="M 52.09 39.978437 
L 62.09 39.978437 
L 72.09 39.978437 
" style="fill: none; stroke: #0000ff; stroke-width: 1.5; stroke-linecap: square"/>
    </g>
    <g id="text_14">
     <!-- Nominal GDP -->
     <g transform="translate(80.09 43.478437) scale(0.1 -0.1)">
      <defs>
       <path id="DejaVuSans-4e" d="M 628 4666 
L 1478 4666 
L 3547 763 
L 3547 4666 
L 4159 4666 
L 4159 0 
L 3309 0 
L 1241 3903 
L 1241 0 
L 628 0 
L 628 4666 
z
" transform="scale(0.015625)"/>
       <path id="DejaVuSans-69" d="M 603 3500 
L 1178 3500 
L 1178 0 
L 603 0 
L 603 3500 
z
M 603 4863 
L 1178 4863 
L 1178 4134 
L 603 4134 
L 603 4863 
z
" transform="scale(0.015625)"/>
       <path id="DejaVuSans-61" d="M 2194 1759 
Q 1497 1759 1228 1600 
Q 959 1441 959 1056 
Q 959 750 1161 570 
Q 1363 391 1709 391 
Q 2188 391 2477 730 
Q 2766 1069 2766 1631 
L 2766 1759 
L 2194 1759 
z
M 3341 1997 
L 3341 0 
L 2766 0 
L 2766 531 
Q 2569 213 2275 61 
Q 1981 -91 1556 -91 
Q 1019 -91 701 211 
Q 384 513 384 1019 
Q 384 1609 779 1909 
Q 1175 2209 1959 2209 
L 2766 2209 
L 2766 2266 
Q 2766 2663 2505 2880 
Q 2244 3097 1772 3097 
Q 1472 3097 1187 3025 
Q 903 2953 641 2809 
L 641 3341 
Q 956 3463 1253 3523 
Q 1550 3584 1831 3584 
Q 2591 3584 2966 3190 
Q 3341 2797 3341 1997 
z
" transform="scale(0.015625)"/>
       <path id="DejaVuSans-6c" d="M 603 4863 
L 1178 4863 
L 1178 0 
L 603 0 
L 603 4863 
z
" transform="scale(0.015625)"/>
      </defs>
      <use xlink:href="#DejaVuSans-4e"/>
      <use xlink:href="#DejaVuSans-6f" transform="translate(74.804688 0)"/>
      <use xlink:href="#DejaVuSans-6d" transform="translate(135.986328 0)"/>
      <use xlink:href="#DejaVuSans-69" transform="translate(233.398438 0)"/>
      <use xlink:href="#DejaVuSans-6e" transform="translate(261.181641 0)"/>
      <use xlink:href="#DejaVuSans-61" transform="translate(324.560547 0)"/>
      <use xlink:href="#DejaVuSans-6c" transform="translate(385.839844 0)"/>
      <use xlink:href="#DejaVuSans-20" transform="translate(413.623047 0)"/>
      <use xlink:href="#DejaVuSans-47" transform="translate(445.410156 0)"/>
      <use xlink:href="#DejaVuSans-44" transform="translate(522.900391 0)"/>
      <use xlink:href="#DejaVuSans-50" transform="translate(599.902344 0)"/>
     </g>
    </g>
    <g id="line2d_23">
     <path d="M 52.09 54.656562 
L 62.09 54.656562 
L 72.09 54.656562 
" style="fill: none; stroke: #008000; stroke-width: 1.5; stroke-linecap: square"/>
    </g>
    <g id="text_15">
     <!-- GDP Trend -->
     <g transform="translate(80.09 58.156562) scale(0.1 -0.1)">
      <defs>
       <path id="DejaVuSans-54" d="M -19 4666 
L 3928 4666 
L 3928 4134 
L 2272 4134 
L 2272 0 
L 1638 0 
L 1638 4134 
L -19 4134 
L -19 4666 
z
" transform="scale(0.015625)"/>
       <path id="DejaVuSans-72" d="M 2631 2963 
Q 2534 3019 2420 3045 
Q 2306 3072 2169 3072 
Q 1681 3072 1420 2755 
Q 1159 2438 1159 1844 
L 1159 0 
L 581 0 
L 581 3500 
L 1159 3500 
L 1159 2956 
Q 1341 3275 1631 3429 
Q 1922 3584 2338 3584 
Q 2397 3584 2469 3576 
Q 2541 3569 2628 3553 
L 2631 2963 
z
" transform="scale(0.015625)"/>
       <path id="DejaVuSans-64" d="M 2906 2969 
L 2906 4863 
L 3481 4863 
L 3481 0 
L 2906 0 
L 2906 525 
Q 2725 213 2448 61 
Q 2172 -91 1784 -91 
Q 1150 -91 751 415 
Q 353 922 353 1747 
Q 353 2572 751 3078 
Q 1150 3584 1784 3584 
Q 2172 3584 2448 3432 
Q 2725 3281 2906 2969 
z
M 947 1747 
Q 947 1113 1208 752 
Q 1469 391 1925 391 
Q 2381 391 2643 752 
Q 2906 1113 2906 1747 
Q 2906 2381 2643 2742 
Q 2381 3103 1925 3103 
Q 1469 3103 1208 2742 
Q 947 2381 947 1747 
z
" transform="scale(0.015625)"/>
      </defs>
      <use xlink:href="#DejaVuSans-47"/>
      <use xlink:href="#DejaVuSans-44" transform="translate(77.490234 0)"/>
      <use xlink:href="#DejaVuSans-50" transform="translate(154.492188 0)"/>
      <use xlink:href="#DejaVuSans-20" transform="translate(214.794922 0)"/>
      <use xlink:href="#DejaVuSans-54" transform="translate(246.582031 0)"/>
      <use xlink:href="#DejaVuSans-72" transform="translate(292.916016 0)"/>
      <use xlink:href="#DejaVuSans-65" transform="translate(331.779297 0)"/>
      <use xlink:href="#DejaVuSans-6e" transform="translate(393.302734 0)"/>
      <use xlink:href="#DejaVuSans-64" transform="translate(456.681641 0)"/>
     </g>
    </g>
    <g id="line2d_24">
     <path d="M 52.09 69.334687 
L 62.09 69.334687 
L 72.09 69.334687 
" style="fill: none; stroke: #ff0000; stroke-width: 1.5; stroke-linecap: square"/>
    </g>
    <g id="text_16">
     <!-- GDP Cycle -->
     <g transform="translate(80.09 72.834687) scale(0.1 -0.1)">
      <defs>
       <path id="DejaVuSans-79" d="M 2059 -325 
Q 1816 -950 1584 -1140 
Q 1353 -1331 966 -1331 
L 506 -1331 
L 506 -850 
L 844 -850 
Q 1081 -850 1212 -737 
Q 1344 -625 1503 -206 
L 1606 56 
L 191 3500 
L 800 3500 
L 1894 763 
L 2988 3500 
L 3597 3500 
L 2059 -325 
z
" transform="scale(0.015625)"/>
       <path id="DejaVuSans-63" d="M 3122 3366 
L 3122 2828 
Q 2878 2963 2633 3030 
Q 2388 3097 2138 3097 
Q 1578 3097 1268 2742 
Q 959 2388 959 1747 
Q 959 1106 1268 751 
Q 1578 397 2138 397 
Q 2388 397 2633 464 
Q 2878 531 3122 666 
L 3122 134 
Q 2881 22 2623 -34 
Q 2366 -91 2075 -91 
Q 1284 -91 818 406 
Q 353 903 353 1747 
Q 353 2603 823 3093 
Q 1294 3584 2113 3584 
Q 2378 3584 2631 3529 
Q 2884 3475 3122 3366 
z
" transform="scale(0.015625)"/>
      </defs>
      <use xlink:href="#DejaVuSans-47"/>
      <use xlink:href="#DejaVuSans-44" transform="translate(77.490234 0)"/>
      <use xlink:href="#DejaVuSans-50" transform="translate(154.492188 0)"/>
      <use xlink:href="#DejaVuSans-20" transform="translate(214.794922 0)"/>
      <use xlink:href="#DejaVuSans-43" transform="translate(246.582031 0)"/>
      <use xlink:href="#DejaVuSans-79" transform="translate(316.40625 0)"/>
      <use xlink:href="#DejaVuSans-63" transform="translate(375.585938 0)"/>
      <use xlink:href="#DejaVuSans-6c" transform="translate(430.566406 0)"/>
      <use xlink:href="#DejaVuSans-65" transform="translate(458.349609 0)"/>
     </g>
    </g>
    <g id="line2d_25">
     <path d="M 52.09 84.012812 
L 62.09 84.012812 
L 72.09 84.012812 
" style="fill: none; stroke: #ffa500; stroke-width: 1.5; stroke-linecap: square"/>
    </g>
    <g id="text_17">
     <!-- GDP Seasonal -->
     <g transform="translate(80.09 87.512812) scale(0.1 -0.1)">
      <defs>
       <path id="DejaVuSans-53" d="M 3425 4513 
L 3425 3897 
Q 3066 4069 2747 4153 
Q 2428 4238 2131 4238 
Q 1616 4238 1336 4038 
Q 1056 3838 1056 3469 
Q 1056 3159 1242 3001 
Q 1428 2844 1947 2747 
L 2328 2669 
Q 3034 2534 3370 2195 
Q 3706 1856 3706 1288 
Q 3706 609 3251 259 
Q 2797 -91 1919 -91 
Q 1588 -91 1214 -16 
Q 841 59 441 206 
L 441 856 
Q 825 641 1194 531 
Q 1563 422 1919 422 
Q 2459 422 2753 634 
Q 3047 847 3047 1241 
Q 3047 1584 2836 1778 
Q 2625 1972 2144 2069 
L 1759 2144 
Q 1053 2284 737 2584 
Q 422 2884 422 3419 
Q 422 4038 858 4394 
Q 1294 4750 2059 4750 
Q 2388 4750 2728 4690 
Q 3069 4631 3425 4513 
z
" transform="scale(0.015625)"/>
      </defs>
      <use xlink:href="#DejaVuSans-47"/>
      <use xlink:href="#DejaVuSans-44" transform="translate(77.490234 0)"/>
      <use xlink:href="#DejaVuSans-50" transform="translate(154.492188 0)"/>
      <use xlink:href="#DejaVuSans-20" transform="translate(214.794922 0)"/>
      <use xlink:href="#DejaVuSans-53" transform="translate(246.582031 0)"/>
      <use xlink:href="#DejaVuSans-65" transform="translate(310.058594 0)"/>
      <use xlink:href="#DejaVuSans-61" transform="translate(371.582031 0)"/>
      <use xlink:href="#DejaVuSans-73" transform="translate(432.861328 0)"/>
      <use xlink:href="#DejaVuSans-6f" transform="translate(484.960938 0)"/>
      <use xlink:href="#DejaVuSans-6e" transform="translate(546.142578 0)"/>
      <use xlink:href="#DejaVuSans-61" transform="translate(609.521484 0)"/>
      <use xlink:href="#DejaVuSans-6c" transform="translate(670.800781 0)"/>
     </g>
    </g>
   </g>
  </g>
 </g>
 <defs>
  <clipPath id="p71837219e5">
   <rect x="43.09" y="26.88" width="1026.11" height="665.24"/>
  </clipPath>
 </defs>
</svg>
