<?xml version="1.0" encoding="utf-8" standalone="no"?>
<!DOCTYPE svg PUBLIC "-//W3C//DTD SVG 1.1//EN"
  "http://www.w3.org/Graphics/SVG/1.1/DTD/svg11.dtd">
<svg xmlns:xlink="http://www.w3.org/1999/xlink" width="856.806875pt" height="425.012198pt" viewBox="0 0 856.806875 425.012198" xmlns="http://www.w3.org/2000/svg" version="1.1">
 <metadata>
  <rdf:RDF xmlns:dc="http://purl.org/dc/elements/1.1/" xmlns:cc="http://creativecommons.org/ns#" xmlns:rdf="http://www.w3.org/1999/02/22-rdf-syntax-ns#">
   <cc:Work>
    <dc:type rdf:resource="http://purl.org/dc/dcmitype/StillImage"/>
    <dc:date>2025-05-18T05:50:02.131670</dc:date>
    <dc:format>image/svg+xml</dc:format>
    <dc:creator>
     <cc:Agent>
      <dc:title>Matplotlib v3.10.3, https://matplotlib.org/</dc:title>
     </cc:Agent>
    </dc:creator>
   </cc:Work>
  </rdf:RDF>
 </metadata>
 <defs>
  <style type="text/css">*{stroke-linejoin: round; stroke-linecap: butt}</style>
 </defs>
 <g id="figure_1">
  <g id="patch_1">
   <path d="M 0 425.012198 
L 856.806875 425.012198 
L 856.806875 0 
L 0 0 
z
" style="fill: #ffffff"/>
  </g>
  <g id="axes_1">
   <g id="patch_2">
    <path d="M 44.546875 375.471467 
L 849.606875 375.471467 
L 849.606875 21.935625 
L 44.546875 21.935625 
z
" style="fill: #ffffff"/>
   </g>
   <g id="matplotlib.axis_1">
    <g id="xtick_1">
     <g id="text_1">
      <!-- 2012 -->
      <g style="fill: #262626" transform="translate(126.744106 403.261511) rotate(-45) scale(0.1 -0.1)">
       <defs>
        <path id="ArialMT-32" d="M 3222 541 
L 3222 0 
L 194 0 
Q 188 203 259 391 
Q 375 700 629 1000 
Q 884 1300 1366 1694 
Q 2113 2306 2375 2664 
Q 2638 3022 2638 3341 
Q 2638 3675 2398 3904 
Q 2159 4134 1775 4134 
Q 1369 4134 1125 3890 
Q 881 3647 878 3216 
L 300 3275 
Q 359 3922 746 4261 
Q 1134 4600 1788 4600 
Q 2447 4600 2831 4234 
Q 3216 3869 3216 3328 
Q 3216 3053 3103 2787 
Q 2991 2522 2730 2228 
Q 2469 1934 1863 1422 
Q 1356 997 1212 845 
Q 1069 694 975 541 
L 3222 541 
z
" transform="scale(0.015625)"/>
        <path id="ArialMT-30" d="M 266 2259 
Q 266 3072 433 3567 
Q 600 4063 929 4331 
Q 1259 4600 1759 4600 
Q 2128 4600 2406 4451 
Q 2684 4303 2865 4023 
Q 3047 3744 3150 3342 
Q 3253 2941 3253 2259 
Q 3253 1453 3087 958 
Q 2922 463 2592 192 
Q 2263 -78 1759 -78 
Q 1097 -78 719 397 
Q 266 969 266 2259 
z
M 844 2259 
Q 844 1131 1108 757 
Q 1372 384 1759 384 
Q 2147 384 2411 759 
Q 2675 1134 2675 2259 
Q 2675 3391 2411 3762 
Q 2147 4134 1753 4134 
Q 1366 4134 1134 3806 
Q 844 3388 844 2259 
z
" transform="scale(0.015625)"/>
        <path id="ArialMT-31" d="M 2384 0 
L 1822 0 
L 1822 3584 
Q 1619 3391 1289 3197 
Q 959 3003 697 2906 
L 697 3450 
Q 1169 3672 1522 3987 
Q 1875 4303 2022 4600 
L 2384 4600 
L 2384 0 
z
" transform="scale(0.015625)"/>
       </defs>
       <use xlink:href="#ArialMT-32"/>
       <use xlink:href="#ArialMT-30" transform="translate(55.615234 0)"/>
       <use xlink:href="#ArialMT-31" transform="translate(111.230469 0)"/>
       <use xlink:href="#ArialMT-32" transform="translate(166.845703 0)"/>
      </g>
     </g>
    </g>
    <g id="xtick_2">
     <g id="text_2">
      <!-- 2014 -->
      <g style="fill: #262626" transform="translate(230.165518 403.261511) rotate(-45) scale(0.1 -0.1)">
       <defs>
        <path id="ArialMT-34" d="M 2069 0 
L 2069 1097 
L 81 1097 
L 81 1613 
L 2172 4581 
L 2631 4581 
L 2631 1613 
L 3250 1613 
L 3250 1097 
L 2631 1097 
L 2631 0 
L 2069 0 
z
M 2069 1613 
L 2069 3678 
L 634 1613 
L 2069 1613 
z
" transform="scale(0.015625)"/>
       </defs>
       <use xlink:href="#ArialMT-32"/>
       <use xlink:href="#ArialMT-30" transform="translate(55.615234 0)"/>
       <use xlink:href="#ArialMT-31" transform="translate(111.230469 0)"/>
       <use xlink:href="#ArialMT-34" transform="translate(166.845703 0)"/>
      </g>
     </g>
    </g>
    <g id="xtick_3">
     <g id="text_3">
      <!-- 2016 -->
      <g style="fill: #262626" transform="translate(333.44545 403.261511) rotate(-45) scale(0.1 -0.1)">
       <defs>
        <path id="ArialMT-36" d="M 3184 3459 
L 2625 3416 
Q 2550 3747 2413 3897 
Q 2184 4138 1850 4138 
Q 1581 4138 1378 3988 
Q 1113 3794 959 3422 
Q 806 3050 800 2363 
Q 1003 2672 1297 2822 
Q 1591 2972 1913 2972 
Q 2475 2972 2870 2558 
Q 3266 2144 3266 1488 
Q 3266 1056 3080 686 
Q 2894 316 2569 119 
Q 2244 -78 1831 -78 
Q 1128 -78 684 439 
Q 241 956 241 2144 
Q 241 3472 731 4075 
Q 1159 4600 1884 4600 
Q 2425 4600 2770 4297 
Q 3116 3994 3184 3459 
z
M 888 1484 
Q 888 1194 1011 928 
Q 1134 663 1356 523 
Q 1578 384 1822 384 
Q 2178 384 2434 671 
Q 2691 959 2691 1453 
Q 2691 1928 2437 2201 
Q 2184 2475 1800 2475 
Q 1419 2475 1153 2201 
Q 888 1928 888 1484 
z
" transform="scale(0.015625)"/>
       </defs>
       <use xlink:href="#ArialMT-32"/>
       <use xlink:href="#ArialMT-30" transform="translate(55.615234 0)"/>
       <use xlink:href="#ArialMT-31" transform="translate(111.230469 0)"/>
       <use xlink:href="#ArialMT-36" transform="translate(166.845703 0)"/>
      </g>
     </g>
    </g>
    <g id="xtick_4">
     <g id="text_4">
      <!-- 2018 -->
      <g style="fill: #262626" transform="translate(436.866862 403.261511) rotate(-45) scale(0.1 -0.1)">
       <defs>
        <path id="ArialMT-38" d="M 1131 2484 
Q 781 2613 612 2850 
Q 444 3088 444 3419 
Q 444 3919 803 4259 
Q 1163 4600 1759 4600 
Q 2359 4600 2725 4251 
Q 3091 3903 3091 3403 
Q 3091 3084 2923 2848 
Q 2756 2613 2416 2484 
Q 2838 2347 3058 2040 
Q 3278 1734 3278 1309 
Q 3278 722 2862 322 
Q 2447 -78 1769 -78 
Q 1091 -78 675 323 
Q 259 725 259 1325 
Q 259 1772 486 2073 
Q 713 2375 1131 2484 
z
M 1019 3438 
Q 1019 3113 1228 2906 
Q 1438 2700 1772 2700 
Q 2097 2700 2305 2904 
Q 2513 3109 2513 3406 
Q 2513 3716 2298 3927 
Q 2084 4138 1766 4138 
Q 1444 4138 1231 3931 
Q 1019 3725 1019 3438 
z
M 838 1322 
Q 838 1081 952 856 
Q 1066 631 1291 507 
Q 1516 384 1775 384 
Q 2178 384 2440 643 
Q 2703 903 2703 1303 
Q 2703 1709 2433 1975 
Q 2163 2241 1756 2241 
Q 1359 2241 1098 1978 
Q 838 1716 838 1322 
z
" transform="scale(0.015625)"/>
       </defs>
       <use xlink:href="#ArialMT-32"/>
       <use xlink:href="#ArialMT-30" transform="translate(55.615234 0)"/>
       <use xlink:href="#ArialMT-31" transform="translate(111.230469 0)"/>
       <use xlink:href="#ArialMT-38" transform="translate(166.845703 0)"/>
      </g>
     </g>
    </g>
    <g id="xtick_5">
     <g id="text_5">
      <!-- 2020 -->
      <g style="fill: #262626" transform="translate(540.146795 403.261511) rotate(-45) scale(0.1 -0.1)">
       <use xlink:href="#ArialMT-32"/>
       <use xlink:href="#ArialMT-30" transform="translate(55.615234 0)"/>
       <use xlink:href="#ArialMT-32" transform="translate(111.230469 0)"/>
       <use xlink:href="#ArialMT-30" transform="translate(166.845703 0)"/>
      </g>
     </g>
    </g>
    <g id="xtick_6">
     <g id="text_6">
      <!-- 2022 -->
      <g style="fill: #262626" transform="translate(643.568207 403.261511) rotate(-45) scale(0.1 -0.1)">
       <use xlink:href="#ArialMT-32"/>
       <use xlink:href="#ArialMT-30" transform="translate(55.615234 0)"/>
       <use xlink:href="#ArialMT-32" transform="translate(111.230469 0)"/>
       <use xlink:href="#ArialMT-32" transform="translate(166.845703 0)"/>
      </g>
     </g>
    </g>
    <g id="xtick_7">
     <g id="text_7">
      <!-- 2024 -->
      <g style="fill: #262626" transform="translate(746.848139 403.261511) rotate(-45) scale(0.1 -0.1)">
       <use xlink:href="#ArialMT-32"/>
       <use xlink:href="#ArialMT-30" transform="translate(55.615234 0)"/>
       <use xlink:href="#ArialMT-32" transform="translate(111.230469 0)"/>
       <use xlink:href="#ArialMT-34" transform="translate(166.845703 0)"/>
      </g>
     </g>
    </g>
    <g id="text_8">
     <!-- Date -->
     <g style="fill: #262626" transform="translate(436.515938 415.824698) scale(0.1 -0.1)">
      <defs>
       <path id="ArialMT-44" d="M 494 0 
L 494 4581 
L 2072 4581 
Q 2606 4581 2888 4516 
Q 3281 4425 3559 4188 
Q 3922 3881 4101 3404 
Q 4281 2928 4281 2316 
Q 4281 1794 4159 1391 
Q 4038 988 3847 723 
Q 3656 459 3429 307 
Q 3203 156 2883 78 
Q 2563 0 2147 0 
L 494 0 
z
M 1100 541 
L 2078 541 
Q 2531 541 2789 625 
Q 3047 709 3200 863 
Q 3416 1078 3536 1442 
Q 3656 1806 3656 2325 
Q 3656 3044 3420 3430 
Q 3184 3816 2847 3947 
Q 2603 4041 2063 4041 
L 1100 4041 
L 1100 541 
z
" transform="scale(0.015625)"/>
       <path id="ArialMT-61" d="M 2588 409 
Q 2275 144 1986 34 
Q 1697 -75 1366 -75 
Q 819 -75 525 192 
Q 231 459 231 875 
Q 231 1119 342 1320 
Q 453 1522 633 1644 
Q 813 1766 1038 1828 
Q 1203 1872 1538 1913 
Q 2219 1994 2541 2106 
Q 2544 2222 2544 2253 
Q 2544 2597 2384 2738 
Q 2169 2928 1744 2928 
Q 1347 2928 1158 2789 
Q 969 2650 878 2297 
L 328 2372 
Q 403 2725 575 2942 
Q 747 3159 1072 3276 
Q 1397 3394 1825 3394 
Q 2250 3394 2515 3294 
Q 2781 3194 2906 3042 
Q 3031 2891 3081 2659 
Q 3109 2516 3109 2141 
L 3109 1391 
Q 3109 606 3145 398 
Q 3181 191 3288 0 
L 2700 0 
Q 2613 175 2588 409 
z
M 2541 1666 
Q 2234 1541 1622 1453 
Q 1275 1403 1131 1340 
Q 988 1278 909 1158 
Q 831 1038 831 891 
Q 831 666 1001 516 
Q 1172 366 1500 366 
Q 1825 366 2078 508 
Q 2331 650 2450 897 
Q 2541 1088 2541 1459 
L 2541 1666 
z
" transform="scale(0.015625)"/>
       <path id="ArialMT-74" d="M 1650 503 
L 1731 6 
Q 1494 -44 1306 -44 
Q 1000 -44 831 53 
Q 663 150 594 308 
Q 525 466 525 972 
L 525 2881 
L 113 2881 
L 113 3319 
L 525 3319 
L 525 4141 
L 1084 4478 
L 1084 3319 
L 1650 3319 
L 1650 2881 
L 1084 2881 
L 1084 941 
Q 1084 700 1114 631 
Q 1144 563 1211 522 
Q 1278 481 1403 481 
Q 1497 481 1650 503 
z
" transform="scale(0.015625)"/>
       <path id="ArialMT-65" d="M 2694 1069 
L 3275 997 
Q 3138 488 2766 206 
Q 2394 -75 1816 -75 
Q 1088 -75 661 373 
Q 234 822 234 1631 
Q 234 2469 665 2931 
Q 1097 3394 1784 3394 
Q 2450 3394 2872 2941 
Q 3294 2488 3294 1666 
Q 3294 1616 3291 1516 
L 816 1516 
Q 847 969 1125 678 
Q 1403 388 1819 388 
Q 2128 388 2347 550 
Q 2566 713 2694 1069 
z
M 847 1978 
L 2700 1978 
Q 2663 2397 2488 2606 
Q 2219 2931 1791 2931 
Q 1403 2931 1139 2672 
Q 875 2413 847 1978 
z
" transform="scale(0.015625)"/>
      </defs>
      <use xlink:href="#ArialMT-44"/>
      <use xlink:href="#ArialMT-61" transform="translate(72.216797 0)"/>
      <use xlink:href="#ArialMT-74" transform="translate(127.832031 0)"/>
      <use xlink:href="#ArialMT-65" transform="translate(155.615234 0)"/>
     </g>
    </g>
   </g>
   <g id="matplotlib.axis_2">
    <g id="ytick_1">
     <g id="line2d_1">
      <path d="M 44.546875 372.944281 
L 849.606875 372.944281 
" clip-path="url(#p9c4ce828d4)" style="fill: none; stroke-dasharray: 1.85,0.8; stroke-dashoffset: 0; stroke: #cccccc; stroke-width: 0.5"/>
     </g>
     <g id="text_9">
      <!-- −20 -->
      <g style="fill: #262626" transform="translate(20.584375 376.523187) scale(0.1 -0.1)">
       <defs>
        <path id="ArialMT-2212" d="M 3381 1997 
L 356 1997 
L 356 2522 
L 3381 2522 
L 3381 1997 
z
" transform="scale(0.015625)"/>
       </defs>
       <use xlink:href="#ArialMT-2212"/>
       <use xlink:href="#ArialMT-32" transform="translate(58.398438 0)"/>
       <use xlink:href="#ArialMT-30" transform="translate(114.013672 0)"/>
      </g>
     </g>
    </g>
    <g id="ytick_2">
     <g id="line2d_2">
      <path d="M 44.546875 321.256187 
L 849.606875 321.256187 
" clip-path="url(#p9c4ce828d4)" style="fill: none; stroke-dasharray: 1.85,0.8; stroke-dashoffset: 0; stroke: #cccccc; stroke-width: 0.5"/>
     </g>
     <g id="text_10">
      <!-- −10 -->
      <g style="fill: #262626" transform="translate(20.584375 324.835094) scale(0.1 -0.1)">
       <use xlink:href="#ArialMT-2212"/>
       <use xlink:href="#ArialMT-31" transform="translate(58.398438 0)"/>
       <use xlink:href="#ArialMT-30" transform="translate(114.013672 0)"/>
      </g>
     </g>
    </g>
    <g id="ytick_3">
     <g id="line2d_3">
      <path d="M 44.546875 269.568094 
L 849.606875 269.568094 
" clip-path="url(#p9c4ce828d4)" style="fill: none; stroke-dasharray: 1.85,0.8; stroke-dashoffset: 0; stroke: #cccccc; stroke-width: 0.5"/>
     </g>
     <g id="text_11">
      <!-- 0 -->
      <g style="fill: #262626" transform="translate(31.985938 273.147) scale(0.1 -0.1)">
       <use xlink:href="#ArialMT-30"/>
      </g>
     </g>
    </g>
    <g id="ytick_4">
     <g id="line2d_4">
      <path d="M 44.546875 217.880001 
L 849.606875 217.880001 
" clip-path="url(#p9c4ce828d4)" style="fill: none; stroke-dasharray: 1.85,0.8; stroke-dashoffset: 0; stroke: #cccccc; stroke-width: 0.5"/>
     </g>
     <g id="text_12">
      <!-- 10 -->
      <g style="fill: #262626" transform="translate(26.425 221.458907) scale(0.1 -0.1)">
       <use xlink:href="#ArialMT-31"/>
       <use xlink:href="#ArialMT-30" transform="translate(55.615234 0)"/>
      </g>
     </g>
    </g>
    <g id="ytick_5">
     <g id="line2d_5">
      <path d="M 44.546875 166.191907 
L 849.606875 166.191907 
" clip-path="url(#p9c4ce828d4)" style="fill: none; stroke-dasharray: 1.85,0.8; stroke-dashoffset: 0; stroke: #cccccc; stroke-width: 0.5"/>
     </g>
     <g id="text_13">
      <!-- 20 -->
      <g style="fill: #262626" transform="translate(26.425 169.770814) scale(0.1 -0.1)">
       <use xlink:href="#ArialMT-32"/>
       <use xlink:href="#ArialMT-30" transform="translate(55.615234 0)"/>
      </g>
     </g>
    </g>
    <g id="ytick_6">
     <g id="line2d_6">
      <path d="M 44.546875 114.503814 
L 849.606875 114.503814 
" clip-path="url(#p9c4ce828d4)" style="fill: none; stroke-dasharray: 1.85,0.8; stroke-dashoffset: 0; stroke: #cccccc; stroke-width: 0.5"/>
     </g>
     <g id="text_14">
      <!-- 30 -->
      <g style="fill: #262626" transform="translate(26.425 118.08272) scale(0.1 -0.1)">
       <defs>
        <path id="ArialMT-33" d="M 269 1209 
L 831 1284 
Q 928 806 1161 595 
Q 1394 384 1728 384 
Q 2125 384 2398 659 
Q 2672 934 2672 1341 
Q 2672 1728 2419 1979 
Q 2166 2231 1775 2231 
Q 1616 2231 1378 2169 
L 1441 2663 
Q 1497 2656 1531 2656 
Q 1891 2656 2178 2843 
Q 2466 3031 2466 3422 
Q 2466 3731 2256 3934 
Q 2047 4138 1716 4138 
Q 1388 4138 1169 3931 
Q 950 3725 888 3313 
L 325 3413 
Q 428 3978 793 4289 
Q 1159 4600 1703 4600 
Q 2078 4600 2393 4439 
Q 2709 4278 2876 4000 
Q 3044 3722 3044 3409 
Q 3044 3113 2884 2869 
Q 2725 2625 2413 2481 
Q 2819 2388 3044 2092 
Q 3269 1797 3269 1353 
Q 3269 753 2831 336 
Q 2394 -81 1725 -81 
Q 1122 -81 723 278 
Q 325 638 269 1209 
z
" transform="scale(0.015625)"/>
       </defs>
       <use xlink:href="#ArialMT-33"/>
       <use xlink:href="#ArialMT-30" transform="translate(55.615234 0)"/>
      </g>
     </g>
    </g>
    <g id="ytick_7">
     <g id="line2d_7">
      <path d="M 44.546875 62.815721 
L 849.606875 62.815721 
" clip-path="url(#p9c4ce828d4)" style="fill: none; stroke-dasharray: 1.85,0.8; stroke-dashoffset: 0; stroke: #cccccc; stroke-width: 0.5"/>
     </g>
     <g id="text_15">
      <!-- 40 -->
      <g style="fill: #262626" transform="translate(26.425 66.394627) scale(0.1 -0.1)">
       <use xlink:href="#ArialMT-34"/>
       <use xlink:href="#ArialMT-30" transform="translate(55.615234 0)"/>
      </g>
     </g>
    </g>
    <g id="text_16">
     <!-- Growth Rate (%) -->
     <g style="fill: #262626" transform="translate(14.479688 235.933234) rotate(-90) scale(0.1 -0.1)">
      <defs>
       <path id="ArialMT-47" d="M 2638 1797 
L 2638 2334 
L 4578 2338 
L 4578 638 
Q 4131 281 3656 101 
Q 3181 -78 2681 -78 
Q 2006 -78 1454 211 
Q 903 500 622 1047 
Q 341 1594 341 2269 
Q 341 2938 620 3517 
Q 900 4097 1425 4378 
Q 1950 4659 2634 4659 
Q 3131 4659 3532 4498 
Q 3934 4338 4162 4050 
Q 4391 3763 4509 3300 
L 3963 3150 
Q 3859 3500 3706 3700 
Q 3553 3900 3268 4020 
Q 2984 4141 2638 4141 
Q 2222 4141 1919 4014 
Q 1616 3888 1430 3681 
Q 1244 3475 1141 3228 
Q 966 2803 966 2306 
Q 966 1694 1177 1281 
Q 1388 869 1791 669 
Q 2194 469 2647 469 
Q 3041 469 3416 620 
Q 3791 772 3984 944 
L 3984 1797 
L 2638 1797 
z
" transform="scale(0.015625)"/>
       <path id="ArialMT-72" d="M 416 0 
L 416 3319 
L 922 3319 
L 922 2816 
Q 1116 3169 1280 3281 
Q 1444 3394 1641 3394 
Q 1925 3394 2219 3213 
L 2025 2691 
Q 1819 2813 1613 2813 
Q 1428 2813 1281 2702 
Q 1134 2591 1072 2394 
Q 978 2094 978 1738 
L 978 0 
L 416 0 
z
" transform="scale(0.015625)"/>
       <path id="ArialMT-6f" d="M 213 1659 
Q 213 2581 725 3025 
Q 1153 3394 1769 3394 
Q 2453 3394 2887 2945 
Q 3322 2497 3322 1706 
Q 3322 1066 3130 698 
Q 2938 331 2570 128 
Q 2203 -75 1769 -75 
Q 1072 -75 642 372 
Q 213 819 213 1659 
z
M 791 1659 
Q 791 1022 1069 705 
Q 1347 388 1769 388 
Q 2188 388 2466 706 
Q 2744 1025 2744 1678 
Q 2744 2294 2464 2611 
Q 2184 2928 1769 2928 
Q 1347 2928 1069 2612 
Q 791 2297 791 1659 
z
" transform="scale(0.015625)"/>
       <path id="ArialMT-77" d="M 1034 0 
L 19 3319 
L 600 3319 
L 1128 1403 
L 1325 691 
Q 1338 744 1497 1375 
L 2025 3319 
L 2603 3319 
L 3100 1394 
L 3266 759 
L 3456 1400 
L 4025 3319 
L 4572 3319 
L 3534 0 
L 2950 0 
L 2422 1988 
L 2294 2553 
L 1622 0 
L 1034 0 
z
" transform="scale(0.015625)"/>
       <path id="ArialMT-68" d="M 422 0 
L 422 4581 
L 984 4581 
L 984 2938 
Q 1378 3394 1978 3394 
Q 2347 3394 2619 3248 
Q 2891 3103 3008 2847 
Q 3125 2591 3125 2103 
L 3125 0 
L 2563 0 
L 2563 2103 
Q 2563 2525 2380 2717 
Q 2197 2909 1863 2909 
Q 1613 2909 1392 2779 
Q 1172 2650 1078 2428 
Q 984 2206 984 1816 
L 984 0 
L 422 0 
z
" transform="scale(0.015625)"/>
       <path id="ArialMT-20" transform="scale(0.015625)"/>
       <path id="ArialMT-52" d="M 503 0 
L 503 4581 
L 2534 4581 
Q 3147 4581 3465 4457 
Q 3784 4334 3975 4021 
Q 4166 3709 4166 3331 
Q 4166 2844 3850 2509 
Q 3534 2175 2875 2084 
Q 3116 1969 3241 1856 
Q 3506 1613 3744 1247 
L 4541 0 
L 3778 0 
L 3172 953 
Q 2906 1366 2734 1584 
Q 2563 1803 2427 1890 
Q 2291 1978 2150 2013 
Q 2047 2034 1813 2034 
L 1109 2034 
L 1109 0 
L 503 0 
z
M 1109 2559 
L 2413 2559 
Q 2828 2559 3062 2645 
Q 3297 2731 3419 2920 
Q 3541 3109 3541 3331 
Q 3541 3656 3305 3865 
Q 3069 4075 2559 4075 
L 1109 4075 
L 1109 2559 
z
" transform="scale(0.015625)"/>
       <path id="ArialMT-28" d="M 1497 -1347 
Q 1031 -759 709 28 
Q 388 816 388 1659 
Q 388 2403 628 3084 
Q 909 3875 1497 4659 
L 1900 4659 
Q 1522 4009 1400 3731 
Q 1209 3300 1100 2831 
Q 966 2247 966 1656 
Q 966 153 1900 -1347 
L 1497 -1347 
z
" transform="scale(0.015625)"/>
       <path id="ArialMT-25" d="M 372 3481 
Q 372 3972 619 4315 
Q 866 4659 1334 4659 
Q 1766 4659 2048 4351 
Q 2331 4044 2331 3447 
Q 2331 2866 2045 2552 
Q 1759 2238 1341 2238 
Q 925 2238 648 2547 
Q 372 2856 372 3481 
z
M 1350 4272 
Q 1141 4272 1002 4090 
Q 863 3909 863 3425 
Q 863 2984 1003 2804 
Q 1144 2625 1350 2625 
Q 1563 2625 1702 2806 
Q 1841 2988 1841 3469 
Q 1841 3913 1700 4092 
Q 1559 4272 1350 4272 
z
M 1353 -169 
L 3859 4659 
L 4316 4659 
L 1819 -169 
L 1353 -169 
z
M 3334 1075 
Q 3334 1569 3581 1911 
Q 3828 2253 4300 2253 
Q 4731 2253 5014 1945 
Q 5297 1638 5297 1041 
Q 5297 459 5011 145 
Q 4725 -169 4303 -169 
Q 3888 -169 3611 142 
Q 3334 453 3334 1075 
z
M 4316 1866 
Q 4103 1866 3964 1684 
Q 3825 1503 3825 1019 
Q 3825 581 3965 400 
Q 4106 219 4313 219 
Q 4528 219 4667 400 
Q 4806 581 4806 1063 
Q 4806 1506 4665 1686 
Q 4525 1866 4316 1866 
z
" transform="scale(0.015625)"/>
       <path id="ArialMT-29" d="M 791 -1347 
L 388 -1347 
Q 1322 153 1322 1656 
Q 1322 2244 1188 2822 
Q 1081 3291 891 3722 
Q 769 4003 388 4659 
L 791 4659 
Q 1378 3875 1659 3084 
Q 1900 2403 1900 1659 
Q 1900 816 1576 28 
Q 1253 -759 791 -1347 
z
" transform="scale(0.015625)"/>
      </defs>
      <use xlink:href="#ArialMT-47"/>
      <use xlink:href="#ArialMT-72" transform="translate(77.783203 0)"/>
      <use xlink:href="#ArialMT-6f" transform="translate(111.083984 0)"/>
      <use xlink:href="#ArialMT-77" transform="translate(166.699219 0)"/>
      <use xlink:href="#ArialMT-74" transform="translate(238.916016 0)"/>
      <use xlink:href="#ArialMT-68" transform="translate(266.699219 0)"/>
      <use xlink:href="#ArialMT-20" transform="translate(322.314453 0)"/>
      <use xlink:href="#ArialMT-52" transform="translate(350.097656 0)"/>
      <use xlink:href="#ArialMT-61" transform="translate(422.314453 0)"/>
      <use xlink:href="#ArialMT-74" transform="translate(477.929688 0)"/>
      <use xlink:href="#ArialMT-65" transform="translate(505.712891 0)"/>
      <use xlink:href="#ArialMT-20" transform="translate(561.328125 0)"/>
      <use xlink:href="#ArialMT-28" transform="translate(589.111328 0)"/>
      <use xlink:href="#ArialMT-25" transform="translate(622.412109 0)"/>
      <use xlink:href="#ArialMT-29" transform="translate(711.328125 0)"/>
     </g>
    </g>
   </g>
   <g id="FillBetweenPolyCollection_1"/>
   <g id="FillBetweenPolyCollection_2"/>
   <g id="FillBetweenPolyCollection_3"/>
   <g id="FillBetweenPolyCollection_4">
    <defs>
     <path id="me1d6754bc5" d="M 550.569027 -155.444105 
L 550.569027 -165.067491 
L 554.671928 -138.230985 
L 559.057788 -65.610542 
L 563.302169 -84.75851 
L 567.688029 -122.215659 
L 571.93241 -129.345396 
L 576.31827 -128.16692 
L 580.70413 -148.279839 
L 584.948511 -131.321018 
L 589.334371 -111.452112 
L 593.578752 -119.212245 
L 597.964612 -90.9058 
L 602.350472 -123.93484 
L 602.350472 -155.444105 
L 602.350472 -155.444105 
L 597.964612 -155.444105 
L 593.578752 -155.444105 
L 589.334371 -155.444105 
L 584.948511 -155.444105 
L 580.70413 -155.444105 
L 576.31827 -155.444105 
L 571.93241 -155.444105 
L 567.688029 -155.444105 
L 563.302169 -155.444105 
L 559.057788 -155.444105 
L 554.671928 -155.444105 
L 550.569027 -155.444105 
z
" style="stroke: #ff0000; stroke-opacity: 0.3"/>
    </defs>
    <g clip-path="url(#p9c4ce828d4)">
     <use xlink:href="#me1d6754bc5" x="0" y="425.012198" style="fill: #ff0000; fill-opacity: 0.3; stroke: #ff0000; stroke-opacity: 0.3"/>
    </g>
   </g>
   <g id="patch_3">
    <path d="M 641.434145 278.115702 
L 821.183672 278.115702 
L 821.183672 171.692089 
L 641.434145 171.692089 
L 641.434145 278.115702 
z
" clip-path="url(#p9c4ce828d4)" style="fill: none; stroke: #808080; stroke-width: 0.5; stroke-linejoin: miter"/>
   </g>
   <g id="line2d_8">
    <path d="M 81.140511 231.347642 
L 85.526372 261.618214 
L 93.873654 237.772276 
L 98.118035 262.745008 
L 102.503895 226.239087 
L 106.748275 233.162581 
L 111.134136 229.45424 
L 115.519996 233.108227 
L 119.764377 222.193398 
L 124.150237 238.526512 
L 128.394617 228.035927 
L 132.780478 267.977704 
L 137.166338 257.328178 
L 141.269239 251.022879 
L 145.655099 234.229675 
L 149.89948 221.343306 
L 154.28534 218.181355 
L 158.529721 219.006229 
L 162.915581 236.678388 
L 167.301441 238.015754 
L 171.545822 242.948991 
L 175.931682 254.52072 
L 180.176063 272.260328 
L 184.561923 255.957824 
L 188.947783 257.125093 
L 192.909205 267.845627 
L 197.295066 247.758331 
L 201.539446 272.280053 
L 205.925307 270.623664 
L 210.169687 257.815561 
L 214.555547 263.301176 
L 218.941408 260.210149 
L 223.185788 255.489261 
L 227.571649 231.107064 
L 231.816029 234.261727 
L 236.201889 231.601553 
L 240.58775 241.843223 
L 244.549172 226.090367 
L 248.935032 257.222217 
L 253.179413 235.522603 
L 257.565273 231.216335 
L 261.809654 229.221606 
L 266.195514 245.394476 
L 270.581374 254.863446 
L 274.825755 252.886932 
L 279.211615 271.444367 
L 283.455996 263.234061 
L 287.841856 268.251718 
L 292.227716 244.806403 
L 296.189138 253.566811 
L 300.574998 266.271748 
L 304.819379 262.112866 
L 309.205239 253.660933 
L 313.44962 252.996896 
L 317.83548 262.893399 
L 322.22134 263.795896 
L 326.465721 258.36607 
L 330.851581 243.777541 
L 335.095962 264.700697 
L 339.481822 270.107998 
L 343.867682 256.701317 
L 352.356444 244.037299 
L 356.600825 256.534586 
L 360.986685 249.799685 
L 365.231065 259.590287 
L 369.616926 256.738706 
L 374.002786 263.197833 
L 378.247167 265.690939 
L 382.633027 262.387943 
L 386.877407 273.298793 
L 391.263268 258.171973 
L 395.649128 255.8915 
L 399.61055 239.678491 
L 403.99641 259.293465 
L 408.240791 242.188644 
L 416.871032 245.052425 
L 421.256892 248.416128 
L 425.642752 247.365556 
L 429.887133 244.324154 
L 434.272993 256.23188 
L 438.517374 249.712961 
L 442.903234 250.153049 
L 447.289094 242.060748 
L 455.636376 234.796918 
L 459.880757 230.62694 
L 464.266617 250.613565 
L 468.510998 244.270217 
L 472.896858 261.843535 
L 477.282718 242.172318 
L 481.527099 236.695184 
L 485.912959 261.901071 
L 490.15734 243.117198 
L 494.5432 258.280599 
L 498.92906 247.268925 
L 502.890482 243.968113 
L 507.276343 244.31637 
L 511.520723 248.020675 
L 515.906583 238.347168 
L 520.150964 237.908902 
L 524.536824 243.870487 
L 528.922685 251.751799 
L 533.167065 244.275736 
L 537.552925 241.208948 
L 541.797306 252.163139 
L 546.183166 247.023066 
L 550.569027 259.944708 
L 554.671928 286.781214 
L 559.057788 359.401656 
L 563.302169 340.253689 
L 567.688029 302.796539 
L 571.93241 295.666802 
L 576.31827 296.845279 
L 580.70413 276.732359 
L 584.948511 293.69118 
L 589.334371 313.560086 
L 593.578752 305.799953 
L 597.964612 334.106398 
L 606.311894 270.498294 
L 610.697754 44.928274 
L 614.942135 140.440294 
L 619.327995 176.94869 
L 623.572376 225.959013 
L 627.958236 220.546464 
L 632.344096 235.24604 
L 636.588477 230.937879 
L 640.974337 211.075177 
L 645.218718 221.497187 
L 649.604578 183.34401 
L 653.990438 199.237468 
L 657.951861 228.480742 
L 662.337721 265.700035 
L 666.582101 215.627506 
L 670.967962 233.547487 
L 675.212342 220.752111 
L 679.598203 216.091245 
L 683.984063 228.726725 
L 688.228443 229.383784 
L 692.614304 224.116388 
L 696.858684 211.178671 
L 701.244545 230.364107 
L 705.630405 237.844437 
L 709.591827 230.599577 
L 713.977687 226.784754 
L 718.222068 232.652094 
L 722.607928 226.037039 
L 726.852309 241.940355 
L 731.238169 243.544063 
L 735.624029 246.527683 
L 739.86841 240.804076 
L 744.25427 237.745353 
L 748.498651 227.168651 
L 752.884511 241.349127 
L 757.270371 220.251515 
L 761.373272 227.248725 
L 765.759133 210.107483 
L 770.003513 224.132171 
L 774.389373 227.860497 
L 778.633754 199.891849 
L 783.019614 207.040614 
L 787.405475 228.26784 
L 791.649855 214.293202 
L 796.035715 234.709444 
L 800.280096 238.678889 
L 804.665956 214.572744 
L 809.051817 232.009307 
L 813.013239 229.022747 
L 813.013239 229.022747 
" clip-path="url(#p9c4ce828d4)" style="fill: none; stroke: #4c72b0; stroke-width: 1.5; stroke-linecap: round"/>
   </g>
   <g id="line2d_9">
    <path d="M 81.140511 219.947524 
L 85.526372 246.825333 
L 89.487794 250.443499 
L 93.873654 238.555238 
L 98.118035 260.781118 
L 102.503895 248.892857 
L 106.748275 242.173405 
L 111.134136 223.565691 
L 115.519996 229.768262 
L 119.764377 223.04881 
L 124.150237 234.937071 
L 128.394617 224.599453 
L 132.780478 265.433047 
L 137.166338 256.12919 
L 141.269239 251.994142 
L 145.655099 234.420191 
L 149.89948 226.150096 
L 154.28534 223.565691 
L 158.529721 224.082572 
L 162.915581 235.970833 
L 167.301441 233.386429 
L 171.545822 242.690285 
L 175.931682 254.061666 
L 180.176063 273.703141 
L 184.561923 254.578547 
L 188.947783 258.713594 
L 192.909205 268.534332 
L 197.295066 245.791571 
L 201.539446 268.534332 
L 205.925307 273.703141 
L 210.169687 264.916166 
L 214.555547 263.365523 
L 218.941408 260.781118 
L 223.185788 247.342214 
L 227.571649 228.217619 
L 231.816029 226.150096 
L 236.201889 227.183857 
L 240.58775 240.622762 
L 244.549172 226.666977 
L 248.935032 255.612309 
L 253.179413 237.004595 
L 257.565273 236.487714 
L 261.809654 232.352667 
L 266.195514 242.690285 
L 270.581374 248.375976 
L 274.825755 251.477261 
L 279.211615 272.152499 
L 283.455996 259.747356 
L 287.841856 266.983689 
L 292.227716 244.240928 
L 296.189138 247.342214 
L 300.574998 264.916166 
L 304.819379 258.713594 
L 309.205239 253.544785 
L 313.44962 254.061666 
L 317.83548 257.679833 
L 322.22134 258.196713 
L 326.465721 254.061666 
L 330.851581 242.173405 
L 335.095962 268.017451 
L 339.481822 265.433047 
L 343.867682 256.12919 
L 347.970584 251.994142 
L 352.356444 247.342214 
L 356.600825 258.713594 
L 360.986685 254.578547 
L 365.231065 258.713594 
L 369.616926 254.578547 
L 374.002786 261.81488 
L 378.247167 262.848642 
L 382.633027 259.230475 
L 386.877407 268.017451 
L 391.263268 242.690285 
L 395.649128 246.825333 
L 399.61055 242.173405 
L 403.99641 258.713594 
L 408.240791 242.173405 
L 412.626651 245.791571 
L 416.871032 249.926619 
L 421.256892 247.342214 
L 429.887133 240.105881 
L 434.272993 250.443499 
L 438.517374 245.27469 
L 442.903234 246.825333 
L 447.289094 241.139643 
L 451.250516 240.622762 
L 455.636376 235.970833 
L 459.880757 230.802024 
L 464.266617 254.061666 
L 468.510998 245.791571 
L 472.896858 259.230475 
L 477.282718 240.622762 
L 481.527099 234.937071 
L 485.912959 258.196713 
L 490.15734 240.622762 
L 494.5432 251.477261 
L 498.92906 245.791571 
L 502.890482 238.555238 
L 507.276343 243.207166 
L 511.520723 245.27469 
L 515.906583 243.724047 
L 520.150964 238.038357 
L 524.536824 239.589 
L 528.922685 242.690285 
L 533.167065 240.105881 
L 537.552925 236.487714 
L 541.797306 249.926619 
L 546.183166 243.207166 
L 550.569027 258.196713 
L 554.671928 283.523879 
L 559.057788 355.370329 
L 563.302169 339.34702 
L 567.688029 309.367926 
L 571.93241 297.996545 
L 576.31827 296.962783 
L 580.70413 273.18626 
L 584.948511 289.72645 
L 589.334371 309.367926 
L 593.578752 310.401688 
L 597.964612 329.009401 
L 602.350472 295.929022 
L 606.311894 248.892857 
L 610.697754 38.005436 
L 614.942135 136.212813 
L 619.327995 172.91136 
L 623.572376 218.396882 
L 627.958236 216.329358 
L 632.344096 233.90331 
L 636.588477 223.565691 
L 640.974337 207.542382 
L 645.218718 219.947524 
L 649.604578 176.529526 
L 653.990438 194.103478 
L 657.951861 214.778715 
L 662.337721 256.12919 
L 666.582101 209.609906 
L 670.967962 232.352667 
L 675.212342 219.430643 
L 679.598203 215.295596 
L 683.984063 224.082572 
L 688.228443 226.666977 
L 692.614304 221.498167 
L 696.858684 212.711191 
L 705.630405 239.589 
L 709.591827 231.835786 
L 713.977687 230.802024 
L 718.222068 233.386429 
L 722.607928 229.768262 
L 726.852309 242.173405 
L 731.238169 239.589 
L 735.624029 243.207166 
L 739.86841 237.521476 
L 744.25427 239.072119 
L 748.498651 226.666977 
L 752.884511 239.589 
L 757.270371 220.464405 
L 761.373272 227.183857 
L 765.759133 208.576144 
L 770.003513 222.015048 
L 774.389373 230.802024 
L 778.633754 202.373573 
L 783.019614 207.542382 
L 787.405475 226.666977 
L 791.649855 212.711191 
L 796.035715 230.802024 
L 800.280096 234.937071 
L 804.665956 212.19431 
L 809.051817 229.768262 
L 813.013239 223.04881 
L 813.013239 223.04881 
" clip-path="url(#p9c4ce828d4)" style="fill: none; stroke: #dd8452; stroke-width: 1.5; stroke-linecap: round"/>
   </g>
   <g id="line2d_10">
    <path d="M 81.140511 258.95291 
L 85.526372 254.999288 
L 89.487794 269.680774 
L 93.873654 270.305683 
L 98.118035 267.62979 
L 102.503895 290.469725 
L 106.748275 277.986017 
L 111.134136 264.103629 
L 115.519996 266.448201 
L 119.764377 270.351685 
L 124.150237 266.182007 
L 128.394617 266.387209 
L 132.780478 267.031242 
L 137.166338 268.396842 
L 141.269239 270.505716 
L 145.655099 269.746418 
L 149.89948 273.964683 
L 154.28534 274.465541 
L 158.529721 274.192111 
L 162.915581 268.902868 
L 167.301441 265.205102 
L 171.545822 269.322059 
L 175.931682 269.122026 
L 180.176063 271.018462 
L 184.561923 268.224204 
L 188.947783 271.119254 
L 192.909205 270.254512 
L 197.295066 267.680962 
L 201.539446 265.802616 
L 205.925307 272.653873 
L 210.169687 276.510839 
L 214.555547 269.63167 
L 218.941408 270.12891 
L 223.185788 261.637073 
L 227.571649 266.878762 
L 231.816029 261.975113 
L 236.201889 265.452688 
L 240.58775 268.409764 
L 244.549172 270.099964 
L 248.935032 267.995742 
L 253.179413 270.958504 
L 257.565273 274.475362 
L 261.809654 272.472448 
L 266.195514 266.984723 
L 270.581374 263.260079 
L 274.825755 268.202495 
L 279.211615 270.278805 
L 283.455996 266.123599 
L 287.841856 268.303286 
L 292.227716 269.02847 
L 296.189138 263.530408 
L 300.574998 268.221102 
L 304.819379 266.217155 
L 309.205239 269.455414 
L 313.44962 270.599788 
L 317.83548 264.420994 
L 322.22134 264.030749 
L 326.465721 265.354997 
L 330.851581 268.040194 
L 335.095962 272.853906 
L 339.481822 264.888254 
L 343.867682 269.009863 
L 347.970584 271.024664 
L 352.356444 272.717449 
L 356.600825 271.693508 
L 360.986685 274.170919 
L 365.231065 268.708004 
L 369.616926 267.460254 
L 374.002786 268.201978 
L 378.247167 266.746958 
L 382.633027 266.453886 
L 386.877407 264.248355 
L 391.263268 254.420381 
L 395.649128 260.735633 
L 399.61055 271.926622 
L 403.99641 268.999525 
L 408.240791 269.553621 
L 412.626651 271.582896 
L 416.871032 274.221573 
L 421.256892 268.5364 
L 425.642752 266.076563 
L 429.887133 265.546243 
L 434.272993 263.925305 
L 438.517374 265.294006 
L 442.903234 266.360848 
L 447.289094 268.693531 
L 451.250516 271.502779 
L 455.636376 270.668017 
L 459.880757 269.730911 
L 464.266617 272.894223 
L 468.510998 271.018462 
L 472.896858 266.99351 
L 477.282718 268.096534 
L 481.527099 267.915109 
L 485.912959 265.917881 
L 490.15734 267.195094 
L 494.5432 262.910151 
L 498.92906 268.15184 
L 502.890482 264.410656 
L 507.276343 268.510556 
L 511.520723 266.932001 
L 515.906583 274.638696 
L 520.150964 269.690078 
L 524.536824 265.489387 
L 528.922685 260.808513 
L 533.167065 265.592763 
L 537.552925 265.092422 
L 541.797306 267.40443 
L 546.183166 265.911678 
L 550.569027 267.852049 
L 554.671928 266.198547 
L 559.057788 264.688738 
L 563.302169 268.517792 
L 567.688029 276.590955 
L 571.93241 272.021728 
L 576.31827 269.692145 
L 580.70413 265.972153 
L 584.948511 265.40927 
L 589.334371 264.985944 
L 593.578752 274.516712 
L 597.964612 263.74388 
L 602.350472 264.085538 
L 606.311894 247.923705 
L 610.697754 264.742494 
L 614.942135 266.185625 
L 619.327995 266.144275 
L 623.572376 262.594336 
L 627.958236 265.716297 
L 632.344096 268.308972 
L 636.588477 262.708567 
L 640.974337 266.394445 
L 645.218718 268.15029 
L 649.604578 263.727856 
L 653.990438 265.049004 
L 657.951861 256.875049 
L 662.337721 260.068339 
L 670.967962 268.451114 
L 675.212342 268.36066 
L 679.598203 268.847045 
L 683.984063 265.264026 
L 688.228443 267.047266 
L 692.614304 267.161496 
L 696.858684 270.945065 
L 701.244545 265.65117 
L 705.630405 271.211775 
L 709.591827 270.717637 
L 713.977687 273.278265 
L 718.222068 270.253478 
L 722.607928 273.009487 
L 726.852309 269.789319 
L 731.238169 265.802616 
L 735.624029 266.389276 
L 739.86841 266.458538 
L 744.25427 270.817912 
L 748.498651 269.104452 
L 752.884511 267.899085 
L 757.270371 269.762441 
L 761.373272 269.508136 
L 765.759133 268.194741 
L 770.003513 267.622037 
L 774.389373 272.289989 
L 778.633754 271.755017 
L 783.019614 270.015713 
L 787.405475 268.085679 
L 791.649855 268.138918 
L 796.035715 265.907543 
L 800.280096 266.03728 
L 804.665956 267.418386 
L 809.051817 267.478861 
L 813.013239 264.028681 
L 813.013239 264.028681 
" clip-path="url(#p9c4ce828d4)" style="fill: none; stroke: #55a868; stroke-width: 1.5; stroke-linecap: round"/>
   </g>
   <g id="line2d_11">
    <path d="M 44.546875 269.568094 
L 849.606875 269.568094 
" clip-path="url(#p9c4ce828d4)" style="fill: none; stroke: #000000; stroke-linecap: round"/>
   </g>
   <g id="patch_4">
    <path d="M 44.546875 375.471467 
L 44.546875 21.935625 
" style="fill: none; stroke: #cccccc; stroke-width: 0.8; stroke-linejoin: miter; stroke-linecap: square"/>
   </g>
   <g id="patch_5">
    <path d="M 849.606875 375.471467 
L 849.606875 21.935625 
" style="fill: none; stroke: #cccccc; stroke-width: 0.8; stroke-linejoin: miter; stroke-linecap: square"/>
   </g>
   <g id="patch_6">
    <path d="M 44.546875 375.471467 
L 849.606875 375.471467 
" style="fill: none; stroke: #cccccc; stroke-width: 0.8; stroke-linejoin: miter; stroke-linecap: square"/>
   </g>
   <g id="patch_7">
    <path d="M 44.546875 21.935625 
L 849.606875 21.935625 
" style="fill: none; stroke: #cccccc; stroke-width: 0.8; stroke-linejoin: miter; stroke-linecap: square"/>
   </g>
   <g id="text_17">
    <!-- Monthly Growth Rates (2011-2024) -->
    <g style="fill: #262626" transform="translate(353.814375 15.935625) scale(0.12 -0.12)">
     <defs>
      <path id="ArialMT-4d" d="M 475 0 
L 475 4581 
L 1388 4581 
L 2472 1338 
Q 2622 884 2691 659 
Q 2769 909 2934 1394 
L 4031 4581 
L 4847 4581 
L 4847 0 
L 4263 0 
L 4263 3834 
L 2931 0 
L 2384 0 
L 1059 3900 
L 1059 0 
L 475 0 
z
" transform="scale(0.015625)"/>
      <path id="ArialMT-6e" d="M 422 0 
L 422 3319 
L 928 3319 
L 928 2847 
Q 1294 3394 1984 3394 
Q 2284 3394 2536 3286 
Q 2788 3178 2913 3003 
Q 3038 2828 3088 2588 
Q 3119 2431 3119 2041 
L 3119 0 
L 2556 0 
L 2556 2019 
Q 2556 2363 2490 2533 
Q 2425 2703 2258 2804 
Q 2091 2906 1866 2906 
Q 1506 2906 1245 2678 
Q 984 2450 984 1813 
L 984 0 
L 422 0 
z
" transform="scale(0.015625)"/>
      <path id="ArialMT-6c" d="M 409 0 
L 409 4581 
L 972 4581 
L 972 0 
L 409 0 
z
" transform="scale(0.015625)"/>
      <path id="ArialMT-79" d="M 397 -1278 
L 334 -750 
Q 519 -800 656 -800 
Q 844 -800 956 -737 
Q 1069 -675 1141 -563 
Q 1194 -478 1313 -144 
Q 1328 -97 1363 -6 
L 103 3319 
L 709 3319 
L 1400 1397 
Q 1534 1031 1641 628 
Q 1738 1016 1872 1384 
L 2581 3319 
L 3144 3319 
L 1881 -56 
Q 1678 -603 1566 -809 
Q 1416 -1088 1222 -1217 
Q 1028 -1347 759 -1347 
Q 597 -1347 397 -1278 
z
" transform="scale(0.015625)"/>
      <path id="ArialMT-73" d="M 197 991 
L 753 1078 
Q 800 744 1014 566 
Q 1228 388 1613 388 
Q 2000 388 2187 545 
Q 2375 703 2375 916 
Q 2375 1106 2209 1216 
Q 2094 1291 1634 1406 
Q 1016 1563 777 1677 
Q 538 1791 414 1992 
Q 291 2194 291 2438 
Q 291 2659 392 2848 
Q 494 3038 669 3163 
Q 800 3259 1026 3326 
Q 1253 3394 1513 3394 
Q 1903 3394 2198 3281 
Q 2494 3169 2634 2976 
Q 2775 2784 2828 2463 
L 2278 2388 
Q 2241 2644 2061 2787 
Q 1881 2931 1553 2931 
Q 1166 2931 1000 2803 
Q 834 2675 834 2503 
Q 834 2394 903 2306 
Q 972 2216 1119 2156 
Q 1203 2125 1616 2013 
Q 2213 1853 2448 1751 
Q 2684 1650 2818 1456 
Q 2953 1263 2953 975 
Q 2953 694 2789 445 
Q 2625 197 2315 61 
Q 2006 -75 1616 -75 
Q 969 -75 630 194 
Q 291 463 197 991 
z
" transform="scale(0.015625)"/>
      <path id="ArialMT-2d" d="M 203 1375 
L 203 1941 
L 1931 1941 
L 1931 1375 
L 203 1375 
z
" transform="scale(0.015625)"/>
     </defs>
     <use xlink:href="#ArialMT-4d"/>
     <use xlink:href="#ArialMT-6f" transform="translate(83.300781 0)"/>
     <use xlink:href="#ArialMT-6e" transform="translate(138.916016 0)"/>
     <use xlink:href="#ArialMT-74" transform="translate(194.53125 0)"/>
     <use xlink:href="#ArialMT-68" transform="translate(222.314453 0)"/>
     <use xlink:href="#ArialMT-6c" transform="translate(277.929688 0)"/>
     <use xlink:href="#ArialMT-79" transform="translate(300.146484 0)"/>
     <use xlink:href="#ArialMT-20" transform="translate(350.146484 0)"/>
     <use xlink:href="#ArialMT-47" transform="translate(377.929688 0)"/>
     <use xlink:href="#ArialMT-72" transform="translate(455.712891 0)"/>
     <use xlink:href="#ArialMT-6f" transform="translate(489.013672 0)"/>
     <use xlink:href="#ArialMT-77" transform="translate(544.628906 0)"/>
     <use xlink:href="#ArialMT-74" transform="translate(616.845703 0)"/>
     <use xlink:href="#ArialMT-68" transform="translate(644.628906 0)"/>
     <use xlink:href="#ArialMT-20" transform="translate(700.244141 0)"/>
     <use xlink:href="#ArialMT-52" transform="translate(728.027344 0)"/>
     <use xlink:href="#ArialMT-61" transform="translate(800.244141 0)"/>
     <use xlink:href="#ArialMT-74" transform="translate(855.859375 0)"/>
     <use xlink:href="#ArialMT-65" transform="translate(883.642578 0)"/>
     <use xlink:href="#ArialMT-73" transform="translate(939.257812 0)"/>
     <use xlink:href="#ArialMT-20" transform="translate(989.257812 0)"/>
     <use xlink:href="#ArialMT-28" transform="translate(1017.041016 0)"/>
     <use xlink:href="#ArialMT-32" transform="translate(1050.341797 0)"/>
     <use xlink:href="#ArialMT-30" transform="translate(1105.957031 0)"/>
     <use xlink:href="#ArialMT-31" transform="translate(1161.572266 0)"/>
     <use xlink:href="#ArialMT-31" transform="translate(1209.8125 0)"/>
     <use xlink:href="#ArialMT-2d" transform="translate(1265.427734 0)"/>
     <use xlink:href="#ArialMT-32" transform="translate(1298.728516 0)"/>
     <use xlink:href="#ArialMT-30" transform="translate(1354.34375 0)"/>
     <use xlink:href="#ArialMT-32" transform="translate(1409.958984 0)"/>
     <use xlink:href="#ArialMT-34" transform="translate(1465.574219 0)"/>
     <use xlink:href="#ArialMT-29" transform="translate(1521.189453 0)"/>
    </g>
   </g>
   <g id="legend_1">
    <g id="patch_8">
     <path d="M 725.019375 87.116875 
L 842.606875 87.116875 
Q 844.606875 87.116875 844.606875 85.116875 
L 844.606875 28.935625 
Q 844.606875 26.935625 842.606875 26.935625 
L 725.019375 26.935625 
Q 723.019375 26.935625 723.019375 28.935625 
L 723.019375 85.116875 
Q 723.019375 87.116875 725.019375 87.116875 
z
" style="fill: #ffffff; opacity: 0.8; stroke: #cccccc; stroke-linejoin: miter"/>
    </g>
    <g id="line2d_12">
     <path d="M 727.019375 34.715312 
L 737.019375 34.715312 
L 747.019375 34.715312 
" style="fill: none; stroke: #4c72b0; stroke-width: 1.5; stroke-linecap: round"/>
    </g>
    <g id="text_18">
     <!-- Real_GDP_Growth -->
     <g style="fill: #262626" transform="translate(755.019375 38.215312) scale(0.1 -0.1)">
      <defs>
       <path id="ArialMT-5f" d="M -97 -1272 
L -97 -866 
L 3631 -866 
L 3631 -1272 
L -97 -1272 
z
" transform="scale(0.015625)"/>
       <path id="ArialMT-50" d="M 494 0 
L 494 4581 
L 2222 4581 
Q 2678 4581 2919 4538 
Q 3256 4481 3484 4323 
Q 3713 4166 3852 3881 
Q 3991 3597 3991 3256 
Q 3991 2672 3619 2267 
Q 3247 1863 2275 1863 
L 1100 1863 
L 1100 0 
L 494 0 
z
M 1100 2403 
L 2284 2403 
Q 2872 2403 3119 2622 
Q 3366 2841 3366 3238 
Q 3366 3525 3220 3729 
Q 3075 3934 2838 4000 
Q 2684 4041 2272 4041 
L 1100 4041 
L 1100 2403 
z
" transform="scale(0.015625)"/>
      </defs>
      <use xlink:href="#ArialMT-52"/>
      <use xlink:href="#ArialMT-65" transform="translate(72.216797 0)"/>
      <use xlink:href="#ArialMT-61" transform="translate(127.832031 0)"/>
      <use xlink:href="#ArialMT-6c" transform="translate(183.447266 0)"/>
      <use xlink:href="#ArialMT-5f" transform="translate(205.664062 0)"/>
      <use xlink:href="#ArialMT-47" transform="translate(261.279297 0)"/>
      <use xlink:href="#ArialMT-44" transform="translate(339.0625 0)"/>
      <use xlink:href="#ArialMT-50" transform="translate(411.279297 0)"/>
      <use xlink:href="#ArialMT-5f" transform="translate(477.978516 0)"/>
      <use xlink:href="#ArialMT-47" transform="translate(533.59375 0)"/>
      <use xlink:href="#ArialMT-72" transform="translate(611.376953 0)"/>
      <use xlink:href="#ArialMT-6f" transform="translate(644.677734 0)"/>
      <use xlink:href="#ArialMT-77" transform="translate(700.292969 0)"/>
      <use xlink:href="#ArialMT-74" transform="translate(772.509766 0)"/>
      <use xlink:href="#ArialMT-68" transform="translate(800.292969 0)"/>
     </g>
    </g>
    <g id="line2d_13">
     <path d="M 727.019375 48.9825 
L 737.019375 48.9825 
L 747.019375 48.9825 
" style="fill: none; stroke: #dd8452; stroke-width: 1.5; stroke-linecap: round"/>
    </g>
    <g id="text_19">
     <!-- YoY Growth (%) -->
     <g style="fill: #262626" transform="translate(755.019375 52.4825) scale(0.1 -0.1)">
      <defs>
       <path id="ArialMT-59" d="M 1784 0 
L 1784 1941 
L 19 4581 
L 756 4581 
L 1659 3200 
Q 1909 2813 2125 2425 
Q 2331 2784 2625 3234 
L 3513 4581 
L 4219 4581 
L 2391 1941 
L 2391 0 
L 1784 0 
z
" transform="scale(0.015625)"/>
      </defs>
      <use xlink:href="#ArialMT-59"/>
      <use xlink:href="#ArialMT-6f" transform="translate(57.574219 0)"/>
      <use xlink:href="#ArialMT-59" transform="translate(113.189453 0)"/>
      <use xlink:href="#ArialMT-20" transform="translate(178.138672 0)"/>
      <use xlink:href="#ArialMT-47" transform="translate(205.921875 0)"/>
      <use xlink:href="#ArialMT-72" transform="translate(283.705078 0)"/>
      <use xlink:href="#ArialMT-6f" transform="translate(317.005859 0)"/>
      <use xlink:href="#ArialMT-77" transform="translate(372.621094 0)"/>
      <use xlink:href="#ArialMT-74" transform="translate(444.837891 0)"/>
      <use xlink:href="#ArialMT-68" transform="translate(472.621094 0)"/>
      <use xlink:href="#ArialMT-20" transform="translate(528.236328 0)"/>
      <use xlink:href="#ArialMT-28" transform="translate(556.019531 0)"/>
      <use xlink:href="#ArialMT-25" transform="translate(589.320312 0)"/>
      <use xlink:href="#ArialMT-29" transform="translate(678.236328 0)"/>
     </g>
    </g>
    <g id="line2d_14">
     <path d="M 727.019375 63.366875 
L 737.019375 63.366875 
L 747.019375 63.366875 
" style="fill: none; stroke: #55a868; stroke-width: 1.5; stroke-linecap: round"/>
    </g>
    <g id="text_20">
     <!-- Inflation_Rate -->
     <g style="fill: #262626" transform="translate(755.019375 66.866875) scale(0.1 -0.1)">
      <defs>
       <path id="ArialMT-49" d="M 597 0 
L 597 4581 
L 1203 4581 
L 1203 0 
L 597 0 
z
" transform="scale(0.015625)"/>
       <path id="ArialMT-66" d="M 556 0 
L 556 2881 
L 59 2881 
L 59 3319 
L 556 3319 
L 556 3672 
Q 556 4006 616 4169 
Q 697 4388 901 4523 
Q 1106 4659 1475 4659 
Q 1713 4659 2000 4603 
L 1916 4113 
Q 1741 4144 1584 4144 
Q 1328 4144 1222 4034 
Q 1116 3925 1116 3625 
L 1116 3319 
L 1763 3319 
L 1763 2881 
L 1116 2881 
L 1116 0 
L 556 0 
z
" transform="scale(0.015625)"/>
       <path id="ArialMT-69" d="M 425 3934 
L 425 4581 
L 988 4581 
L 988 3934 
L 425 3934 
z
M 425 0 
L 425 3319 
L 988 3319 
L 988 0 
L 425 0 
z
" transform="scale(0.015625)"/>
      </defs>
      <use xlink:href="#ArialMT-49"/>
      <use xlink:href="#ArialMT-6e" transform="translate(27.783203 0)"/>
      <use xlink:href="#ArialMT-66" transform="translate(83.398438 0)"/>
      <use xlink:href="#ArialMT-6c" transform="translate(111.181641 0)"/>
      <use xlink:href="#ArialMT-61" transform="translate(133.398438 0)"/>
      <use xlink:href="#ArialMT-74" transform="translate(189.013672 0)"/>
      <use xlink:href="#ArialMT-69" transform="translate(216.796875 0)"/>
      <use xlink:href="#ArialMT-6f" transform="translate(239.013672 0)"/>
      <use xlink:href="#ArialMT-6e" transform="translate(294.628906 0)"/>
      <use xlink:href="#ArialMT-5f" transform="translate(350.244141 0)"/>
      <use xlink:href="#ArialMT-52" transform="translate(405.859375 0)"/>
      <use xlink:href="#ArialMT-61" transform="translate(478.076172 0)"/>
      <use xlink:href="#ArialMT-74" transform="translate(533.691406 0)"/>
      <use xlink:href="#ArialMT-65" transform="translate(561.474609 0)"/>
     </g>
    </g>
    <g id="patch_9">
     <path d="M 727.019375 81.012187 
L 747.019375 81.012187 
L 747.019375 74.012187 
L 727.019375 74.012187 
z
" style="fill: #ff0000; fill-opacity: 0.3; stroke: #ff0000; stroke-opacity: 0.3; stroke-linejoin: miter"/>
    </g>
    <g id="text_21">
     <!-- Highlighted Period -->
     <g style="fill: #262626" transform="translate(755.019375 81.012187) scale(0.1 -0.1)">
      <defs>
       <path id="ArialMT-48" d="M 513 0 
L 513 4581 
L 1119 4581 
L 1119 2700 
L 3500 2700 
L 3500 4581 
L 4106 4581 
L 4106 0 
L 3500 0 
L 3500 2159 
L 1119 2159 
L 1119 0 
L 513 0 
z
" transform="scale(0.015625)"/>
       <path id="ArialMT-67" d="M 319 -275 
L 866 -356 
Q 900 -609 1056 -725 
Q 1266 -881 1628 -881 
Q 2019 -881 2231 -725 
Q 2444 -569 2519 -288 
Q 2563 -116 2559 434 
Q 2191 0 1641 0 
Q 956 0 581 494 
Q 206 988 206 1678 
Q 206 2153 378 2554 
Q 550 2956 876 3175 
Q 1203 3394 1644 3394 
Q 2231 3394 2613 2919 
L 2613 3319 
L 3131 3319 
L 3131 450 
Q 3131 -325 2973 -648 
Q 2816 -972 2473 -1159 
Q 2131 -1347 1631 -1347 
Q 1038 -1347 672 -1080 
Q 306 -813 319 -275 
z
M 784 1719 
Q 784 1066 1043 766 
Q 1303 466 1694 466 
Q 2081 466 2343 764 
Q 2606 1063 2606 1700 
Q 2606 2309 2336 2618 
Q 2066 2928 1684 2928 
Q 1309 2928 1046 2623 
Q 784 2319 784 1719 
z
" transform="scale(0.015625)"/>
       <path id="ArialMT-64" d="M 2575 0 
L 2575 419 
Q 2259 -75 1647 -75 
Q 1250 -75 917 144 
Q 584 363 401 755 
Q 219 1147 219 1656 
Q 219 2153 384 2558 
Q 550 2963 881 3178 
Q 1213 3394 1622 3394 
Q 1922 3394 2156 3267 
Q 2391 3141 2538 2938 
L 2538 4581 
L 3097 4581 
L 3097 0 
L 2575 0 
z
M 797 1656 
Q 797 1019 1065 703 
Q 1334 388 1700 388 
Q 2069 388 2326 689 
Q 2584 991 2584 1609 
Q 2584 2291 2321 2609 
Q 2059 2928 1675 2928 
Q 1300 2928 1048 2622 
Q 797 2316 797 1656 
z
" transform="scale(0.015625)"/>
      </defs>
      <use xlink:href="#ArialMT-48"/>
      <use xlink:href="#ArialMT-69" transform="translate(72.216797 0)"/>
      <use xlink:href="#ArialMT-67" transform="translate(94.433594 0)"/>
      <use xlink:href="#ArialMT-68" transform="translate(150.048828 0)"/>
      <use xlink:href="#ArialMT-6c" transform="translate(205.664062 0)"/>
      <use xlink:href="#ArialMT-69" transform="translate(227.880859 0)"/>
      <use xlink:href="#ArialMT-67" transform="translate(250.097656 0)"/>
      <use xlink:href="#ArialMT-68" transform="translate(305.712891 0)"/>
      <use xlink:href="#ArialMT-74" transform="translate(361.328125 0)"/>
      <use xlink:href="#ArialMT-65" transform="translate(389.111328 0)"/>
      <use xlink:href="#ArialMT-64" transform="translate(444.726562 0)"/>
      <use xlink:href="#ArialMT-20" transform="translate(500.341797 0)"/>
      <use xlink:href="#ArialMT-50" transform="translate(528.125 0)"/>
      <use xlink:href="#ArialMT-65" transform="translate(594.824219 0)"/>
      <use xlink:href="#ArialMT-72" transform="translate(650.439453 0)"/>
      <use xlink:href="#ArialMT-69" transform="translate(683.740234 0)"/>
      <use xlink:href="#ArialMT-6f" transform="translate(705.957031 0)"/>
      <use xlink:href="#ArialMT-64" transform="translate(761.572266 0)"/>
     </g>
    </g>
   </g>
  </g>
  <g id="axes_2">
   <g id="patch_10">
    <path d="M 81.749275 171.88532 
L 371.570875 171.88532 
L 371.570875 44.612417 
L 81.749275 44.612417 
z
" style="fill: #ffffff"/>
   </g>
   <g id="matplotlib.axis_3">
    <g id="xtick_8">
     <g id="text_22">
      <!-- 2022-01 -->
      <g style="fill: #262626" transform="translate(83.777213 209.894162) rotate(-45) scale(0.1 -0.1)">
       <use xlink:href="#ArialMT-32"/>
       <use xlink:href="#ArialMT-30" transform="translate(55.615234 0)"/>
       <use xlink:href="#ArialMT-32" transform="translate(111.230469 0)"/>
       <use xlink:href="#ArialMT-32" transform="translate(166.845703 0)"/>
       <use xlink:href="#ArialMT-2d" transform="translate(222.460938 0)"/>
       <use xlink:href="#ArialMT-30" transform="translate(255.761719 0)"/>
       <use xlink:href="#ArialMT-31" transform="translate(311.376953 0)"/>
      </g>
     </g>
    </g>
    <g id="xtick_9">
     <g id="text_23">
      <!-- 2022-05 -->
      <g style="fill: #262626" transform="translate(111.151154 209.894162) rotate(-45) scale(0.1 -0.1)">
       <defs>
        <path id="ArialMT-35" d="M 266 1200 
L 856 1250 
Q 922 819 1161 601 
Q 1400 384 1738 384 
Q 2144 384 2425 690 
Q 2706 997 2706 1503 
Q 2706 1984 2436 2262 
Q 2166 2541 1728 2541 
Q 1456 2541 1237 2417 
Q 1019 2294 894 2097 
L 366 2166 
L 809 4519 
L 3088 4519 
L 3088 3981 
L 1259 3981 
L 1013 2750 
Q 1425 3038 1878 3038 
Q 2478 3038 2890 2622 
Q 3303 2206 3303 1553 
Q 3303 931 2941 478 
Q 2500 -78 1738 -78 
Q 1113 -78 717 272 
Q 322 622 266 1200 
z
" transform="scale(0.015625)"/>
       </defs>
       <use xlink:href="#ArialMT-32"/>
       <use xlink:href="#ArialMT-30" transform="translate(55.615234 0)"/>
       <use xlink:href="#ArialMT-32" transform="translate(111.230469 0)"/>
       <use xlink:href="#ArialMT-32" transform="translate(166.845703 0)"/>
       <use xlink:href="#ArialMT-2d" transform="translate(222.460938 0)"/>
       <use xlink:href="#ArialMT-30" transform="translate(255.761719 0)"/>
       <use xlink:href="#ArialMT-35" transform="translate(311.376953 0)"/>
      </g>
     </g>
    </g>
    <g id="xtick_10">
     <g id="text_24">
      <!-- 2022-09 -->
      <g style="fill: #262626" transform="translate(139.209444 209.894162) rotate(-45) scale(0.1 -0.1)">
       <defs>
        <path id="ArialMT-39" d="M 350 1059 
L 891 1109 
Q 959 728 1153 556 
Q 1347 384 1650 384 
Q 1909 384 2104 503 
Q 2300 622 2425 820 
Q 2550 1019 2634 1356 
Q 2719 1694 2719 2044 
Q 2719 2081 2716 2156 
Q 2547 1888 2255 1720 
Q 1963 1553 1622 1553 
Q 1053 1553 659 1965 
Q 266 2378 266 3053 
Q 266 3750 677 4175 
Q 1088 4600 1706 4600 
Q 2153 4600 2523 4359 
Q 2894 4119 3086 3673 
Q 3278 3228 3278 2384 
Q 3278 1506 3087 986 
Q 2897 466 2520 194 
Q 2144 -78 1638 -78 
Q 1100 -78 759 220 
Q 419 519 350 1059 
z
M 2653 3081 
Q 2653 3566 2395 3850 
Q 2138 4134 1775 4134 
Q 1400 4134 1122 3828 
Q 844 3522 844 3034 
Q 844 2597 1108 2323 
Q 1372 2050 1759 2050 
Q 2150 2050 2401 2323 
Q 2653 2597 2653 3081 
z
" transform="scale(0.015625)"/>
       </defs>
       <use xlink:href="#ArialMT-32"/>
       <use xlink:href="#ArialMT-30" transform="translate(55.615234 0)"/>
       <use xlink:href="#ArialMT-32" transform="translate(111.230469 0)"/>
       <use xlink:href="#ArialMT-32" transform="translate(166.845703 0)"/>
       <use xlink:href="#ArialMT-2d" transform="translate(222.460938 0)"/>
       <use xlink:href="#ArialMT-30" transform="translate(255.761719 0)"/>
       <use xlink:href="#ArialMT-39" transform="translate(311.376953 0)"/>
      </g>
     </g>
    </g>
    <g id="xtick_11">
     <g id="text_25">
      <!-- 2023-01 -->
      <g style="fill: #262626" transform="translate(167.039617 209.894162) rotate(-45) scale(0.1 -0.1)">
       <use xlink:href="#ArialMT-32"/>
       <use xlink:href="#ArialMT-30" transform="translate(55.615234 0)"/>
       <use xlink:href="#ArialMT-32" transform="translate(111.230469 0)"/>
       <use xlink:href="#ArialMT-33" transform="translate(166.845703 0)"/>
       <use xlink:href="#ArialMT-2d" transform="translate(222.460938 0)"/>
       <use xlink:href="#ArialMT-30" transform="translate(255.761719 0)"/>
       <use xlink:href="#ArialMT-31" transform="translate(311.376953 0)"/>
      </g>
     </g>
    </g>
    <g id="xtick_12">
     <g id="text_26">
      <!-- 2023-05 -->
      <g style="fill: #262626" transform="translate(194.413558 209.894162) rotate(-45) scale(0.1 -0.1)">
       <use xlink:href="#ArialMT-32"/>
       <use xlink:href="#ArialMT-30" transform="translate(55.615234 0)"/>
       <use xlink:href="#ArialMT-32" transform="translate(111.230469 0)"/>
       <use xlink:href="#ArialMT-33" transform="translate(166.845703 0)"/>
       <use xlink:href="#ArialMT-2d" transform="translate(222.460938 0)"/>
       <use xlink:href="#ArialMT-30" transform="translate(255.761719 0)"/>
       <use xlink:href="#ArialMT-35" transform="translate(311.376953 0)"/>
      </g>
     </g>
    </g>
    <g id="xtick_13">
     <g id="text_27">
      <!-- 2023-09 -->
      <g style="fill: #262626" transform="translate(222.471848 209.894162) rotate(-45) scale(0.1 -0.1)">
       <use xlink:href="#ArialMT-32"/>
       <use xlink:href="#ArialMT-30" transform="translate(55.615234 0)"/>
       <use xlink:href="#ArialMT-32" transform="translate(111.230469 0)"/>
       <use xlink:href="#ArialMT-33" transform="translate(166.845703 0)"/>
       <use xlink:href="#ArialMT-2d" transform="translate(222.460938 0)"/>
       <use xlink:href="#ArialMT-30" transform="translate(255.761719 0)"/>
       <use xlink:href="#ArialMT-39" transform="translate(311.376953 0)"/>
      </g>
     </g>
    </g>
    <g id="xtick_14">
     <g id="text_28">
      <!-- 2024-01 -->
      <g style="fill: #262626" transform="translate(250.302021 209.894162) rotate(-45) scale(0.1 -0.1)">
       <use xlink:href="#ArialMT-32"/>
       <use xlink:href="#ArialMT-30" transform="translate(55.615234 0)"/>
       <use xlink:href="#ArialMT-32" transform="translate(111.230469 0)"/>
       <use xlink:href="#ArialMT-34" transform="translate(166.845703 0)"/>
       <use xlink:href="#ArialMT-2d" transform="translate(222.460938 0)"/>
       <use xlink:href="#ArialMT-30" transform="translate(255.761719 0)"/>
       <use xlink:href="#ArialMT-31" transform="translate(311.376953 0)"/>
      </g>
     </g>
    </g>
    <g id="xtick_15">
     <g id="text_29">
      <!-- 2024-05 -->
      <g style="fill: #262626" transform="translate(277.904078 209.894162) rotate(-45) scale(0.1 -0.1)">
       <use xlink:href="#ArialMT-32"/>
       <use xlink:href="#ArialMT-30" transform="translate(55.615234 0)"/>
       <use xlink:href="#ArialMT-32" transform="translate(111.230469 0)"/>
       <use xlink:href="#ArialMT-34" transform="translate(166.845703 0)"/>
       <use xlink:href="#ArialMT-2d" transform="translate(222.460938 0)"/>
       <use xlink:href="#ArialMT-30" transform="translate(255.761719 0)"/>
       <use xlink:href="#ArialMT-35" transform="translate(311.376953 0)"/>
      </g>
     </g>
    </g>
    <g id="xtick_16">
     <g id="text_30">
      <!-- 2024-09 -->
      <g style="fill: #262626" transform="translate(305.962368 209.894162) rotate(-45) scale(0.1 -0.1)">
       <use xlink:href="#ArialMT-32"/>
       <use xlink:href="#ArialMT-30" transform="translate(55.615234 0)"/>
       <use xlink:href="#ArialMT-32" transform="translate(111.230469 0)"/>
       <use xlink:href="#ArialMT-34" transform="translate(166.845703 0)"/>
       <use xlink:href="#ArialMT-2d" transform="translate(222.460938 0)"/>
       <use xlink:href="#ArialMT-30" transform="translate(255.761719 0)"/>
       <use xlink:href="#ArialMT-39" transform="translate(311.376953 0)"/>
      </g>
     </g>
    </g>
    <g id="xtick_17">
     <g id="text_31">
      <!-- 2025-01 -->
      <g style="fill: #262626" transform="translate(333.792541 209.894162) rotate(-45) scale(0.1 -0.1)">
       <use xlink:href="#ArialMT-32"/>
       <use xlink:href="#ArialMT-30" transform="translate(55.615234 0)"/>
       <use xlink:href="#ArialMT-32" transform="translate(111.230469 0)"/>
       <use xlink:href="#ArialMT-35" transform="translate(166.845703 0)"/>
       <use xlink:href="#ArialMT-2d" transform="translate(222.460938 0)"/>
       <use xlink:href="#ArialMT-30" transform="translate(255.761719 0)"/>
       <use xlink:href="#ArialMT-31" transform="translate(311.376953 0)"/>
      </g>
     </g>
    </g>
   </g>
   <g id="matplotlib.axis_4">
    <g id="ytick_8">
     <g id="line2d_15">
      <path d="M 81.749275 161.663163 
L 371.570875 161.663163 
" clip-path="url(#pc3576ffe9c)" style="fill: none; stroke-dasharray: 1.85,0.8; stroke-dashoffset: 0; stroke: #cccccc; stroke-width: 0.5"/>
     </g>
     <g id="text_32">
      <!-- 0 -->
      <g style="fill: #262626" transform="translate(69.188338 165.242069) scale(0.1 -0.1)">
       <use xlink:href="#ArialMT-30"/>
      </g>
     </g>
    </g>
    <g id="ytick_9">
     <g id="line2d_16">
      <path d="M 81.749275 130.756048 
L 371.570875 130.756048 
" clip-path="url(#pc3576ffe9c)" style="fill: none; stroke-dasharray: 1.85,0.8; stroke-dashoffset: 0; stroke: #cccccc; stroke-width: 0.5"/>
     </g>
     <g id="text_33">
      <!-- 5 -->
      <g style="fill: #262626" transform="translate(69.188338 134.334954) scale(0.1 -0.1)">
       <use xlink:href="#ArialMT-35"/>
      </g>
     </g>
    </g>
    <g id="ytick_10">
     <g id="line2d_17">
      <path d="M 81.749275 99.848933 
L 371.570875 99.848933 
" clip-path="url(#pc3576ffe9c)" style="fill: none; stroke-dasharray: 1.85,0.8; stroke-dashoffset: 0; stroke: #cccccc; stroke-width: 0.5"/>
     </g>
     <g id="text_34">
      <!-- 10 -->
      <g style="fill: #262626" transform="translate(63.6274 103.427839) scale(0.1 -0.1)">
       <use xlink:href="#ArialMT-31"/>
       <use xlink:href="#ArialMT-30" transform="translate(55.615234 0)"/>
      </g>
     </g>
    </g>
    <g id="ytick_11">
     <g id="line2d_18">
      <path d="M 81.749275 68.941818 
L 371.570875 68.941818 
" clip-path="url(#pc3576ffe9c)" style="fill: none; stroke-dasharray: 1.85,0.8; stroke-dashoffset: 0; stroke: #cccccc; stroke-width: 0.5"/>
     </g>
     <g id="text_35">
      <!-- 15 -->
      <g style="fill: #262626" transform="translate(63.6274 72.520724) scale(0.1 -0.1)">
       <use xlink:href="#ArialMT-31"/>
       <use xlink:href="#ArialMT-35" transform="translate(55.615234 0)"/>
      </g>
     </g>
    </g>
    <g id="text_36">
     <!-- Real_GDP_Growth -->
     <g style="fill: #262626" transform="translate(57.6399 151.042619) rotate(-90) scale(0.1 -0.1)">
      <use xlink:href="#ArialMT-52"/>
      <use xlink:href="#ArialMT-65" transform="translate(72.216797 0)"/>
      <use xlink:href="#ArialMT-61" transform="translate(127.832031 0)"/>
      <use xlink:href="#ArialMT-6c" transform="translate(183.447266 0)"/>
      <use xlink:href="#ArialMT-5f" transform="translate(205.664062 0)"/>
      <use xlink:href="#ArialMT-47" transform="translate(261.279297 0)"/>
      <use xlink:href="#ArialMT-44" transform="translate(339.0625 0)"/>
      <use xlink:href="#ArialMT-50" transform="translate(411.279297 0)"/>
      <use xlink:href="#ArialMT-5f" transform="translate(477.978516 0)"/>
      <use xlink:href="#ArialMT-47" transform="translate(533.59375 0)"/>
      <use xlink:href="#ArialMT-72" transform="translate(611.376953 0)"/>
      <use xlink:href="#ArialMT-6f" transform="translate(644.677734 0)"/>
      <use xlink:href="#ArialMT-77" transform="translate(700.292969 0)"/>
      <use xlink:href="#ArialMT-74" transform="translate(772.509766 0)"/>
      <use xlink:href="#ArialMT-68" transform="translate(800.292969 0)"/>
     </g>
    </g>
   </g>
   <g id="FillBetweenPolyCollection_5"/>
   <g id="FillBetweenPolyCollection_6"/>
   <g id="FillBetweenPolyCollection_7"/>
   <g id="patch_11">
    <path d="M 81.749275 44.612417 
L 641.434145 171.692089 
" style="fill: none; stroke: #808080; stroke-width: 0.5; stroke-linejoin: miter"/>
   </g>
   <g id="patch_12">
    <path d="M 371.570875 44.612417 
L 821.183672 171.692089 
" style="fill: none; stroke: #808080; stroke-width: 0.5; stroke-linejoin: miter"/>
   </g>
   <g id="line2d_19">
    <path d="M 94.922984 58.547048 
L 101.994586 77.55417 
L 108.381838 112.52645 
L 115.45344 157.037319 
L 122.296925 97.155156 
L 129.368526 118.585813 
L 136.212012 103.283715 
L 143.283613 97.709745 
L 150.355215 112.820623 
L 157.1987 113.606405 
L 164.270301 107.307082 
L 171.113786 91.834756 
L 178.185388 114.778782 
L 185.256989 123.724572 
L 191.644242 115.060382 
L 198.715844 110.498203 
L 205.559329 117.515005 
L 212.63093 109.604005 
L 219.474415 128.622915 
L 226.546017 130.540803 
L 233.617618 134.108939 
L 240.461104 127.26403 
L 247.532705 123.606077 
L 254.37619 110.957309 
L 261.447792 127.915861 
L 268.519393 102.685047 
L 275.134762 111.05307 
L 282.206364 90.553713 
L 289.049849 107.325957 
L 296.12145 111.784693 
L 302.964935 78.33675 
L 310.036537 86.886019 
L 317.108138 112.271838 
L 323.951624 95.55945 
L 331.023225 119.975407 
L 337.86671 124.722501 
L 344.938312 95.893756 
L 352.009913 116.746291 
L 358.397166 113.174638 
" clip-path="url(#pc3576ffe9c)" style="fill: none; stroke: #4c72b0; stroke-width: 1.5; stroke-linecap: round"/>
   </g>
   <g id="line2d_20">
    <path d="M 94.922984 50.397549 
L 101.994586 71.414387 
L 108.381838 96.140079 
L 115.45344 145.591463 
L 122.296925 89.958656 
L 129.368526 117.156917 
L 136.212012 101.70336 
L 143.283613 96.758221 
L 150.355215 107.266641 
L 157.1987 110.357352 
L 164.270301 104.175929 
L 171.113786 93.66751 
L 178.185388 109.73921 
L 185.256989 125.81091 
L 191.644242 116.538775 
L 198.715844 115.30249 
L 205.559329 118.393202 
L 212.63093 114.066206 
L 219.474415 128.901621 
L 226.546017 125.81091 
L 233.617618 130.137906 
L 240.461104 123.33834 
L 247.532705 125.192767 
L 254.37619 110.357352 
L 261.447792 125.81091 
L 268.519393 102.939644 
L 275.134762 110.975494 
L 282.206364 88.722372 
L 289.049849 104.794071 
L 296.12145 115.30249 
L 302.964935 81.304664 
L 310.036537 87.486087 
L 317.108138 110.357352 
L 323.951624 93.66751 
L 331.023225 115.30249 
L 337.86671 120.247629 
L 344.938312 93.049368 
L 352.009913 114.066206 
L 358.397166 106.030356 
" clip-path="url(#pc3576ffe9c)" style="fill: none; stroke: #dd8452; stroke-width: 1.5; stroke-linecap: round"/>
   </g>
   <g id="line2d_21">
    <path d="M 94.922984 154.678773 
L 101.994586 156.258745 
L 108.381838 146.483442 
L 115.45344 150.302326 
L 122.296925 155.146707 
L 129.368526 160.327357 
L 136.212012 160.219182 
L 143.283613 160.800854 
L 150.355215 156.515892 
L 157.1987 158.648483 
L 164.270301 158.785092 
L 171.113786 163.309894 
L 178.185388 156.978881 
L 185.256989 163.628855 
L 191.644242 163.037911 
L 198.715844 166.100188 
L 205.559329 162.48282 
L 212.63093 165.778754 
L 219.474415 161.927728 
L 226.546017 157.159996 
L 233.617618 157.861588 
L 240.461104 157.944419 
L 247.532705 163.157831 
L 254.37619 161.108689 
L 261.447792 159.667181 
L 268.519393 161.895584 
L 275.134762 161.591458 
L 282.206364 160.020759 
L 289.049849 159.335857 
L 296.12145 164.9183 
L 302.964935 164.278523 
L 310.036537 162.198474 
L 317.108138 159.890331 
L 323.951624 159.953999 
L 331.023225 157.285479 
L 337.86671 157.440633 
L 344.938312 159.092309 
L 352.009913 159.164632 
L 358.397166 155.038532 
" clip-path="url(#pc3576ffe9c)" style="fill: none; stroke: #55a868; stroke-width: 1.5; stroke-linecap: round"/>
   </g>
   <g id="line2d_22">
    <path d="M 81.749275 161.663163 
L 371.570875 161.663163 
" clip-path="url(#pc3576ffe9c)" style="fill: none; stroke: #000000; stroke-linecap: round"/>
   </g>
   <g id="patch_13">
    <path d="M 81.749275 171.88532 
L 81.749275 44.612417 
" style="fill: none; stroke: #cccccc; stroke-width: 0.8; stroke-linejoin: miter; stroke-linecap: square"/>
   </g>
   <g id="patch_14">
    <path d="M 371.570875 171.88532 
L 371.570875 44.612417 
" style="fill: none; stroke: #cccccc; stroke-width: 0.8; stroke-linejoin: miter; stroke-linecap: square"/>
   </g>
   <g id="patch_15">
    <path d="M 81.749275 171.88532 
L 371.570875 171.88532 
" style="fill: none; stroke: #cccccc; stroke-width: 0.8; stroke-linejoin: miter; stroke-linecap: square"/>
   </g>
   <g id="patch_16">
    <path d="M 81.749275 44.612417 
L 371.570875 44.612417 
" style="fill: none; stroke: #cccccc; stroke-width: 0.8; stroke-linejoin: miter; stroke-linecap: square"/>
   </g>
   <g id="text_37">
    <!-- Zoom: 2022-present -->
    <g style="fill: #262626" transform="translate(181.639763 38.612417) scale(0.1 -0.1)">
     <defs>
      <path id="ArialMT-5a" d="M 128 0 
L 128 563 
L 2475 3497 
Q 2725 3809 2950 4041 
L 394 4041 
L 394 4581 
L 3675 4581 
L 3675 4041 
L 1103 863 
L 825 541 
L 3750 541 
L 3750 0 
L 128 0 
z
" transform="scale(0.015625)"/>
      <path id="ArialMT-6d" d="M 422 0 
L 422 3319 
L 925 3319 
L 925 2853 
Q 1081 3097 1340 3245 
Q 1600 3394 1931 3394 
Q 2300 3394 2536 3241 
Q 2772 3088 2869 2813 
Q 3263 3394 3894 3394 
Q 4388 3394 4653 3120 
Q 4919 2847 4919 2278 
L 4919 0 
L 4359 0 
L 4359 2091 
Q 4359 2428 4304 2576 
Q 4250 2725 4106 2815 
Q 3963 2906 3769 2906 
Q 3419 2906 3187 2673 
Q 2956 2441 2956 1928 
L 2956 0 
L 2394 0 
L 2394 2156 
Q 2394 2531 2256 2718 
Q 2119 2906 1806 2906 
Q 1569 2906 1367 2781 
Q 1166 2656 1075 2415 
Q 984 2175 984 1722 
L 984 0 
L 422 0 
z
" transform="scale(0.015625)"/>
      <path id="ArialMT-3a" d="M 578 2678 
L 578 3319 
L 1219 3319 
L 1219 2678 
L 578 2678 
z
M 578 0 
L 578 641 
L 1219 641 
L 1219 0 
L 578 0 
z
" transform="scale(0.015625)"/>
      <path id="ArialMT-70" d="M 422 -1272 
L 422 3319 
L 934 3319 
L 934 2888 
Q 1116 3141 1344 3267 
Q 1572 3394 1897 3394 
Q 2322 3394 2647 3175 
Q 2972 2956 3137 2557 
Q 3303 2159 3303 1684 
Q 3303 1175 3120 767 
Q 2938 359 2589 142 
Q 2241 -75 1856 -75 
Q 1575 -75 1351 44 
Q 1128 163 984 344 
L 984 -1272 
L 422 -1272 
z
M 931 1641 
Q 931 1000 1190 694 
Q 1450 388 1819 388 
Q 2194 388 2461 705 
Q 2728 1022 2728 1688 
Q 2728 2322 2467 2637 
Q 2206 2953 1844 2953 
Q 1484 2953 1207 2617 
Q 931 2281 931 1641 
z
" transform="scale(0.015625)"/>
     </defs>
     <use xlink:href="#ArialMT-5a"/>
     <use xlink:href="#ArialMT-6f" transform="translate(61.083984 0)"/>
     <use xlink:href="#ArialMT-6f" transform="translate(116.699219 0)"/>
     <use xlink:href="#ArialMT-6d" transform="translate(172.314453 0)"/>
     <use xlink:href="#ArialMT-3a" transform="translate(255.615234 0)"/>
     <use xlink:href="#ArialMT-20" transform="translate(283.398438 0)"/>
     <use xlink:href="#ArialMT-32" transform="translate(311.181641 0)"/>
     <use xlink:href="#ArialMT-30" transform="translate(366.796875 0)"/>
     <use xlink:href="#ArialMT-32" transform="translate(422.412109 0)"/>
     <use xlink:href="#ArialMT-32" transform="translate(478.027344 0)"/>
     <use xlink:href="#ArialMT-2d" transform="translate(533.642578 0)"/>
     <use xlink:href="#ArialMT-70" transform="translate(566.943359 0)"/>
     <use xlink:href="#ArialMT-72" transform="translate(622.558594 0)"/>
     <use xlink:href="#ArialMT-65" transform="translate(655.859375 0)"/>
     <use xlink:href="#ArialMT-73" transform="translate(711.474609 0)"/>
     <use xlink:href="#ArialMT-65" transform="translate(761.474609 0)"/>
     <use xlink:href="#ArialMT-6e" transform="translate(817.089844 0)"/>
     <use xlink:href="#ArialMT-74" transform="translate(872.705078 0)"/>
    </g>
   </g>
  </g>
 </g>
 <defs>
  <clipPath id="p9c4ce828d4">
   <rect x="44.546875" y="21.935625" width="805.06" height="353.535842"/>
  </clipPath>
  <clipPath id="pc3576ffe9c">
   <rect x="81.749275" y="44.612417" width="289.8216" height="127.272903"/>
  </clipPath>
 </defs>
</svg>
